 <svg  version="1.0" xmlns="http://www.w3.org/2000/svg"  width="450.000000pt" height="300.000000pt" viewBox="0 0 450.000000 300.000000"  preserveAspectRatio="xMidYMid meet">  <g transform="translate(0.000000,300.000000) scale(0.050000,-0.050000)" fill="#cb2525" stroke="none"> <path d="M3300 5796 c-71 -9 -164 -19 -205 -23 -41 -5 -86 -17 -100 -28 -14 -11 -53 -26 -88 -34 -35 -7 -98 -40 -140 -72 -42 -32 -97 -58 -122 -58 -25 -1 -43 -12 -40 -26 3 -14 -6 -23 -20 -20 -14 3 -23 -2 -20 -10 10 -31 -133 -206 -160 -196 -15 6 -22 2 -15 -10 13 -21 -100 -139 -132 -139 -10 0 -18 -17 -18 -38 0 -59 -21 -102 -51 -102 -36 0 -92 -59 -78 -82 16 -25 -10 -101 -30 -88 -9 5 -22 -3 -28 -19 -6 -17 -3 -35 7 -41 10 -6 13 -24 7 -41 -6 -16 -19 -24 -30 -17 -10 6 -28 -17 -39 -50 -12 -34 -31 -62 -43 -62 -12 0 -6 -17 12 -37 34 -37 1 -104 -34 -69 -7 7 -13 -2 -13 -21 0 -18 -7 -33 -17 -33 -9 0 -15 -20 -13 -45 2 -25 -10 -55 -27 -68 -27 -20 -27 -26 3 -56 25 -25 29 -43 14 -71 -11 -21 -20 -56 -20 -79 0 -22 -7 -41 -15 -41 -8 0 -17 -32 -20 -72 -3 -39 -14 -88 -25 -108 -13 -23 -13 -42 -1 -49 11 -7 11 -35 -2 -71 -12 -33 -28 -56 -36 -51 -59 37 -118 -192 -71 -270 8 -12 -3 -26 -24 -32 -39 -10 -59 -87 -22 -87 11 0 16 -18 10 -40 -6 -22 -2 -45 8 -51 29 -18 21 -84 -21 -161 -21 -40 -34 -84 -28 -98 5 -14 0 -32 -12 -39 -11 -7 -21 -36 -21 -64 0 -37 -8 -48 -30 -40 -38 15 -38 4 1 -36 27 -26 27 -35 5 -58 -15 -15 -25 -60 -24 -100 2 -40 -2 -73 -9 -73 -7 0 -25 -27 -40 -60 -14 -33 -37 -60 -51 -60 -28 0 -124 -102 -117 -125 3 -8 -5 -15 -16 -15 -12 0 -16 -9 -8 -21 18 -29 88 -3 140 54 25 27 48 40 52 30 11 -27 97 -49 97 -24 0 11 -10 21 -21 21 -12 0 -16 9 -9 19 7 12 30 13 60 1 40 -15 54 -11 79 25 17 24 31 35 31 23 0 -11 -9 -31 -20 -44 -13 -16 -10 -15 9 1 52 45 91 190 58 217 -22 19 -26 15 -22 -22 3 -27 -7 -49 -25 -54 -23 -7 -24 -5 -4 9 37 26 7 85 -43 86 -43 0 -43 1 2 26 41 22 43 28 16 64 -47 62 -18 289 37 289 11 0 -7 -222 -19 -242 -6 -10 3 -18 20 -18 17 0 31 -11 31 -25 0 -14 14 -2 30 25 109 188 132 281 88 363 -16 30 -16 47 0 63 12 12 22 36 22 53 -1 27 -3 27 -22 1 -16 -22 -18 -11 -9 45 10 60 7 75 -19 75 -26 0 -29 -17 -19 -95 9 -72 4 -105 -21 -135 -32 -40 -32 -40 -12 2 11 24 17 46 14 50 -16 18 -28 218 -12 208 24 -15 55 89 51 178 -3 58 5 80 31 87 19 5 38 30 43 56 8 42 5 45 -33 25 -41 -21 -41 -20 -7 18 19 21 35 49 35 61 0 12 9 25 19 28 11 4 23 25 27 47 5 22 15 55 23 74 8 19 8 44 1 56 -7 12 -1 36 13 54 20 24 21 35 4 40 -18 6 -16 27 5 78 16 38 24 79 17 90 -7 11 0 35 14 53 19 23 20 28 2 18 -40 -25 -29 22 27 111 29 45 55 92 57 104 3 12 16 49 31 82 14 33 25 76 24 95 -1 20 7 31 17 24 19 -12 61 70 47 93 -4 7 30 52 76 100 46 49 81 96 79 106 -6 23 79 113 96 102 21 -12 141 122 141 158 0 18 9 32 19 32 11 0 15 -16 8 -35 -9 -29 -7 -30 10 -6 11 16 16 36 11 44 -5 9 23 29 63 46 45 19 67 39 58 53 -9 14 -4 19 13 13 15 -5 56 11 90 36 34 25 94 52 135 60 40 7 73 20 73 28 0 8 11 15 25 16 14 1 102 8 195 16 130 10 198 6 290 -19 66 -19 137 -37 158 -42 20 -5 50 -27 66 -49 15 -23 38 -41 50 -41 13 0 12 11 -4 30 -20 24 -19 30 6 30 18 0 37 -9 44 -20 8 -13 33 -9 70 10 67 35 212 25 242 -17 7 -9 18 -3 24 14 18 46 -136 113 -262 113 -77 0 -112 10 -140 41 -23 24 -73 44 -127 49 -49 5 -142 16 -208 25 -65 9 -177 9 -249 1z m-1541 -2437 c-16 -31 -16 -49 2 -71 14 -16 20 -33 15 -38 -5 -6 -21 13 -36 40 -15 28 -35 50 -44 50 -28 0 31 58 60 59 19 1 20 -9 3 -40z m4 -212 c-5 -48 -1 -68 13 -59 12 7 27 4 33 -6 6 -11 3 -25 -9 -32 -11 -7 -21 -41 -22 -76 l-1 -64 -17 57 c-10 31 -13 69 -7 85 7 18 -2 29 -26 30 -21 0 -26 6 -12 11 14 6 25 31 25 55 0 37 14 72 29 72 2 0 -1 -33 -6 -73z"/> <path d="M3396 5639 c58 -10 132 -32 164 -49 67 -34 80 -37 80 -13 0 32 -111 68 -230 74 l-120 7 106 -19z"/> <path d="M5164 5576 c-22 -22 -52 -29 -169 -41 -21 -2 -32 -15 -26 -31 7 -17 -2 -25 -24 -22 -42 5 -110 -21 -129 -51 -8 -11 -26 -21 -40 -22 -14 0 -24 -11 -22 -23 4 -20 -99 -75 -144 -76 -23 -1 -24 -79 -1 -220 18 -116 -10 -105 -49 19 -27 83 -128 191 -179 191 -26 1 -26 3 -3 18 16 10 42 13 59 6 22 -8 18 7 -15 53 -44 62 -82 68 -82 14 0 -35 -54 -55 -68 -25 -6 13 -9 6 -6 -15 3 -29 -11 -43 -50 -50 -43 -9 -51 -18 -36 -41 11 -16 19 -39 19 -50 0 -11 -20 12 -44 50 -42 66 -45 67 -52 23 -4 -29 -16 -42 -33 -36 -15 6 -30 3 -34 -6 -3 -10 -31 -13 -61 -7 -30 6 -50 18 -44 27 5 9 2 21 -7 26 -8 6 -17 -8 -19 -31 -4 -55 -19 -66 -52 -38 -31 25 -62 -18 -57 -78 2 -20 -1 -22 -8 -5 -6 14 -24 25 -39 25 -15 0 -36 16 -47 35 -12 19 -21 25 -21 12 -1 -20 -121 -52 -121 -31 0 4 24 36 52 70 37 43 45 65 27 71 -14 5 -38 -8 -54 -29 -26 -36 -27 -35 -17 12 22 102 21 150 -1 150 -13 0 -30 6 -38 14 -8 8 10 10 40 4 40 -7 50 -3 39 16 -11 18 -3 16 23 -3 22 -16 42 -31 45 -33 3 -2 10 -28 16 -59 18 -98 37 -118 75 -79 20 20 33 24 33 9 0 -17 7 -18 25 -3 32 26 138 37 169 18 13 -8 29 -5 36 6 7 11 20 16 30 10 9 -5 12 7 7 27 -8 29 4 40 54 50 92 19 105 16 92 -16 -6 -17 -4 -34 6 -40 9 -6 22 3 29 20 6 18 20 27 30 20 20 -12 46 67 30 92 -6 10 -50 13 -99 8 -50 -5 -89 -1 -89 10 0 10 -10 19 -21 19 -12 0 -16 -9 -9 -20 7 -11 -6 -20 -28 -20 -28 0 -37 -9 -29 -30 6 -16 1 -30 -12 -30 -13 0 -18 9 -11 20 7 11 2 20 -10 20 -12 0 -17 9 -10 20 7 11 -6 20 -28 20 -22 0 -46 -10 -53 -22 -10 -16 -18 -16 -28 0 -8 14 -34 16 -72 5 -32 -10 -77 -10 -99 -1 -22 8 -79 11 -127 4 -48 -6 -93 -3 -100 7 -32 45 -290 84 -312 48 -7 -11 -25 -14 -41 -8 -16 6 -78 -12 -139 -40 -117 -53 -141 -76 -66 -60 45 9 44 9 -2 -19 -60 -35 -9 -54 87 -32 52 12 54 14 12 16 -121 6 -14 35 158 43 l90 4 -70 15 -70 15 90 6 c170 11 220 10 220 -5 0 -9 -13 -16 -28 -16 -39 0 -27 -59 20 -95 36 -29 36 -29 -12 -16 -94 25 -223 35 -146 11 35 -12 70 -30 77 -42 10 -16 3 -16 -24 -2 -102 55 -434 17 -374 -42 7 -7 -9 -31 -35 -53 -26 -22 -37 -40 -24 -40 13 -1 29 7 35 17 6 10 29 14 51 8 22 -6 40 -2 40 9 0 11 48 19 110 18 88 -2 108 -9 99 -32 -6 -17 -5 -23 3 -16 8 8 27 4 42 -8 20 -17 35 -15 63 10 45 41 63 42 63 3 0 -16 -8 -30 -18 -30 -10 0 -37 -33 -61 -72 -33 -56 -35 -70 -12 -61 61 23 29 -27 -59 -91 -224 -165 -270 -196 -290 -196 -12 0 -17 -9 -10 -19 6 -11 -7 -31 -29 -45 -23 -14 -41 -35 -41 -46 0 -11 -23 -46 -52 -76 -75 -81 -49 -142 29 -67 30 29 63 53 72 53 9 0 61 46 114 101 57 60 106 96 120 87 13 -8 18 -5 11 6 -7 11 21 50 62 88 49 45 58 50 25 13 -26 -30 -39 -55 -27 -55 29 0 146 140 146 175 0 18 12 25 30 18 17 -7 30 -2 30 10 0 15 10 14 30 -3 23 -19 24 -33 7 -67 -22 -41 -21 -42 16 -9 36 33 40 32 63 -5 30 -48 31 -79 1 -79 -12 0 -37 -16 -55 -35 -17 -19 -57 -48 -87 -64 -30 -15 -55 -44 -55 -64 0 -21 -11 -32 -26 -26 -14 6 -70 -32 -125 -83 -57 -54 -74 -77 -39 -54 86 58 213 118 161 77 -21 -17 -46 -31 -56 -31 -10 0 -12 -9 -5 -20 7 -11 2 -20 -11 -20 -50 0 -144 -84 -116 -105 21 -14 19 -16 -6 -8 -31 10 -70 -21 -107 -85 -10 -17 -8 -23 3 -16 27 16 87 -57 87 -106 0 -51 -34 -52 -49 -2 -35 110 -186 39 -251 -119 -14 -32 -34 -56 -46 -53 -12 2 -23 -9 -23 -26 -1 -16 -12 -49 -25 -72 -29 -51 -66 -268 -46 -268 8 0 39 74 69 164 30 90 67 182 82 204 36 51 36 44 -1 -116 -17 -71 -35 -174 -40 -229 -6 -54 -23 -136 -40 -183 -16 -46 -24 -94 -17 -105 8 -12 4 -15 -10 -7 -13 8 -23 5 -23 -7 0 -11 14 -21 30 -21 44 0 38 -36 -29 -170 -59 -118 -84 -181 -90 -220 -2 -11 -24 -65 -49 -120 -25 -55 -48 -109 -49 -120 -4 -22 -44 -81 -147 -215 -35 -46 -58 -92 -51 -102 6 -12 -2 -14 -21 -7 -18 7 -37 5 -43 -4 -5 -9 10 -15 35 -14 24 1 44 12 44 24 0 28 181 208 209 208 12 0 21 10 21 21 0 12 -11 16 -25 9 -14 -7 -6 4 17 24 23 21 57 65 74 97 27 48 33 52 34 19 1 -30 13 -21 52 40 37 58 47 66 38 30 -28 -102 -252 -380 -394 -489 -51 -38 -116 -100 -146 -136 -41 -50 -48 -54 -29 -15 25 50 25 50 -18 12 -41 -37 -62 -106 -25 -83 10 6 14 -7 8 -29 -6 -22 -19 -46 -28 -51 -10 -6 -18 -21 -18 -33 0 -11 37 16 81 61 45 44 108 92 140 107 33 14 59 33 59 41 0 8 12 15 26 15 15 0 88 41 162 91 209 140 288 140 363 -1 37 -69 37 -74 4 -99 -54 -40 -46 -159 16 -229 53 -60 142 -206 162 -267 16 -49 41 -44 55 13 20 80 118 83 175 4 42 -56 74 -205 40 -184 -13 8 -23 5 -23 -7 0 -11 10 -21 21 -21 12 0 15 -10 8 -21 -7 -12 6 -27 29 -33 49 -13 55 -37 11 -53 -20 -8 -38 5 -53 37 -42 93 -83 43 -49 -60 38 -116 75 -190 95 -190 11 0 15 -9 8 -20 -7 -11 -2 -20 11 -20 15 0 19 -18 10 -52 -9 -35 -6 -47 10 -38 15 10 20 -5 16 -43 -4 -33 -18 -55 -32 -52 -14 3 -35 -18 -45 -46 -15 -39 -30 -49 -58 -40 -21 7 -44 3 -51 -8 -32 -51 -151 -24 -153 34 -4 150 7 324 25 405 32 140 33 243 3 254 -14 6 -26 23 -26 40 0 25 -4 25 -30 -1 -16 -17 -30 -40 -30 -52 0 -11 -9 -21 -20 -21 -11 0 -20 -10 -20 -21 0 -12 11 -16 25 -9 32 16 -30 -33 -77 -61 -23 -14 -37 -52 -41 -120 -33 -477 -27 -455 -134 -499 -46 -19 -103 -44 -128 -56 -50 -23 -358 -28 -510 -9 -96 12 -154 48 -141 87 4 13 -15 18 -51 13 l-59 -9 11 92 c7 61 3 92 -12 92 -13 0 -23 -17 -23 -39 0 -76 -40 -64 -41 13 -3 145 -32 166 -49 36 -10 -66 -15 -131 -13 -145 3 -15 -8 -20 -29 -12 -26 10 -30 5 -20 -27 17 -54 -5 -106 -45 -107 -45 0 9 -33 78 -46 27 -5 117 -23 199 -40 291 -58 386 -57 780 7 204 33 438 65 520 71 259 19 377 48 386 97 5 23 10 -12 11 -79 2 -67 14 -132 27 -145 13 -13 17 -24 9 -24 -8 0 -5 -17 6 -39 62 -115 122 -16 69 112 -158 374 -180 495 -98 515 65 17 110 66 110 121 0 25 20 71 44 102 30 38 37 59 20 64 -13 5 -24 23 -24 40 0 45 -59 104 -92 92 -19 -8 -22 -21 -9 -45 11 -21 11 -46 0 -63 -12 -19 -18 -21 -19 -5 0 40 -106 86 -145 64 -28 -16 -38 -3 -65 86 -38 132 -40 135 -193 296 -70 74 -181 207 -247 297 -66 91 -145 197 -175 237 -99 130 -62 274 39 151 42 -52 45 -53 45 -11 1 24 28 64 62 91 l62 48 -60 119 c-93 183 -114 290 -85 436 23 116 20 206 -8 252 -7 11 -3 20 8 20 27 0 44 -32 56 -104 5 -34 22 -75 37 -90 15 -15 37 -66 48 -112 31 -125 166 -384 201 -384 35 0 36 -4 -28 190 -98 296 -149 485 -138 512 30 80 146 -12 223 -177 21 -47 84 -179 140 -295 156 -328 378 -539 331 -315 -6 30 -11 112 -12 183 0 123 -3 130 -58 153 -72 30 -472 424 -441 435 35 11 27 40 -14 53 -28 9 -42 39 -51 112 -12 88 -19 99 -63 99 -61 0 -62 -13 -4 -61 38 -32 40 -38 10 -38 -19 -1 -35 -14 -35 -31 0 -51 -42 -33 -131 55 -139 140 -167 355 -47 372 l48 6 -45 -42 c-80 -76 -41 -206 57 -187 31 6 60 -3 77 -22 14 -18 34 -32 43 -32 30 0 20 61 -12 73 -92 35 59 184 161 159 39 -10 49 -26 50 -77 1 -59 3 -61 20 -20 10 25 14 56 8 70 -12 32 79 292 115 327 15 15 68 35 118 44 91 18 356 149 381 189 10 16 23 15 45 -4 18 -14 32 -18 33 -8 1 9 6 57 12 105 9 67 4 92 -20 105 -18 11 -26 31 -19 50 10 27 6 28 -31 9 -24 -13 -43 -18 -43 -11 0 6 -27 -7 -60 -31 l-60 -43 -18 49 c-19 49 -72 83 -102 64 -9 -5 -21 5 -28 23 -12 29 -17 29 -54 -4 -35 -33 -121 -22 -97 12 4 5 -10 38 -31 73 -44 76 -43 79 53 94 57 9 76 4 86 -23 11 -29 16 -30 32 -4 16 25 18 25 19 -1 0 -17 20 -43 44 -58 43 -27 43 -28 5 -57 -38 -28 -37 -29 7 -15 25 7 57 5 70 -6 48 -39 174 -39 174 -1 0 31 6 32 50 9 57 -30 150 -19 150 17 0 45 86 19 133 -41 79 -98 172 -558 105 -517 -10 6 -18 2 -18 -10 0 -11 9 -21 20 -21 12 0 8 -30 -10 -72 -16 -40 -30 -94 -30 -120 0 -29 -12 -48 -30 -48 -16 0 -30 8 -30 19 0 10 -18 24 -40 31 -22 7 -40 30 -40 51 0 63 -35 45 -63 -31 -26 -72 -69 -90 -113 -46 -32 32 -31 76 2 76 58 0 76 47 29 73 -43 25 -43 26 21 26 36 1 89 -14 117 -33 63 -41 122 9 87 74 -59 110 -276 62 -441 -98 -117 -112 -125 -144 -34 -129 54 8 75 0 124 -51 64 -68 229 -88 309 -39 55 35 102 6 137 -84 l32 -81 39 62 40 63 55 -115 c30 -63 52 -131 48 -152 -4 -20 0 -33 9 -27 9 6 43 -12 74 -39 32 -27 67 -48 78 -47 11 2 45 -7 76 -20 31 -13 58 -23 60 -23 13 0 0 115 -14 138 -13 20 -5 40 27 65 54 44 79 47 93 9 6 -16 27 -23 50 -17 25 6 36 21 29 39 -6 16 -11 38 -11 48 0 10 -10 18 -21 18 -12 0 -16 -9 -9 -20 7 -11 -9 -18 -39 -16 -57 5 -63 16 -26 53 20 21 19 30 -7 49 -17 13 -28 36 -23 50 7 19 16 17 36 -10 26 -34 28 -34 28 0 1 19 -12 40 -29 47 -38 14 -38 36 1 76 29 28 29 31 0 31 -17 0 -31 -14 -31 -31 0 -17 -7 -27 -16 -21 -22 13 -84 -60 -84 -98 0 -17 -18 -30 -40 -30 -27 0 -40 -13 -40 -40 0 -29 13 -40 45 -39 43 2 43 3 5 19 -29 12 -31 18 -9 19 84 3 109 -50 52 -111 -54 -58 -54 -58 -14 -91 73 -60 43 -56 -73 9 -94 54 -128 89 -205 214 l-91 150 3 180 c2 165 26 275 96 435 12 27 8 33 -17 23 -44 -17 -46 175 -2 212 17 14 30 37 30 53 0 92 200 283 335 319 25 7 45 21 45 31 0 10 22 12 49 5 28 -7 88 3 139 22 65 25 111 30 166 19 42 -8 93 -13 113 -11 23 3 32 -3 24 -16 -19 -31 2 -27 60 10 32 21 70 29 108 21 33 -6 65 -2 73 9 16 27 187 8 216 -24 17 -17 0 -20 -68 -12 -49 6 -74 6 -55 1 19 -6 35 -21 36 -33 2 -85 54 -98 140 -36 46 34 91 57 99 52 9 -5 49 -15 91 -22 106 -16 153 -37 196 -84 20 -23 47 -38 60 -33 13 4 39 -14 59 -42 35 -48 35 -49 -8 -49 -35 0 -39 -5 -19 -29 15 -17 49 -27 82 -23 32 4 54 0 49 -9 -6 -8 3 -20 19 -26 24 -9 26 -1 10 40 -11 28 -13 60 -6 72 9 14 1 17 -23 8 -28 -11 -31 -8 -14 12 16 20 7 37 -37 73 -32 25 -53 56 -46 67 8 12 4 15 -9 8 -12 -8 -31 2 -42 22 -12 19 -21 28 -21 19 -1 -8 -21 -4 -46 9 -25 14 -63 28 -85 31 -78 12 -101 27 -73 44 19 12 11 20 -26 27 -35 6 -50 2 -45 -13 5 -12 -11 -22 -37 -22 -25 0 -40 9 -34 20 6 11 -1 9 -15 -4 -20 -19 -36 -19 -68 -1 -23 13 -49 24 -59 24 -9 1 -30 19 -47 41 -21 28 -33 32 -40 15 -5 -14 -19 -19 -30 -12 -44 27 -237 31 -268 5 -25 -21 -35 -20 -51 3 -15 22 -22 23 -30 4 -13 -32 -61 -33 -72 -1 -5 15 -18 17 -36 5 -35 -21 -205 -25 -220 -4 -6 8 -22 4 -35 -9z m-744 -426 c0 -108 -1 -109 -40 -75 -40 34 -58 118 -20 95 11 -7 20 5 20 25 0 35 16 65 33 65 4 0 7 -49 7 -110z m-127 5 c-9 14 -6 25 6 25 28 0 26 -22 -7 -65 -23 -31 -30 -32 -51 -6 -35 42 -7 80 35 47 24 -19 28 -20 17 -1z m-300 -305 c-6 -16 -5 -29 3 -27 41 6 64 -6 64 -33 0 -17 -18 -30 -42 -30 -24 0 -46 -16 -52 -38 -6 -25 -22 -34 -48 -27 -44 11 -48 27 -13 64 14 14 -2 10 -35 -11 l-60 -36 40 48 c84 102 168 155 143 90z m-170 -82 c-24 -32 -40 -38 -58 -24 -18 15 -30 8 -44 -27 -10 -26 -19 -33 -20 -17 -1 18 -8 22 -16 10 -24 -32 -144 -29 -131 3 8 21 -5 20 -64 -4 -81 -34 -125 -23 -48 11 99 45 158 83 158 101 0 10 23 17 50 14 56 -4 61 -15 25 -55 -14 -15 5 -3 41 26 86 69 166 41 107 -38z m-463 -411 c0 -44 -66 -97 -118 -96 -51 2 -51 2 13 34 36 18 65 44 65 59 0 14 9 26 20 26 11 0 20 -11 20 -23z m-387 -1392 c63 -111 54 -215 -20 -216 -86 -1 -128 147 -72 252 29 55 43 49 92 -36z m226 -914 c22 -26 21 -31 -5 -31 -68 0 -134 40 -134 80 0 46 85 17 139 -49z m488 -528 c94 -103 61 -178 -72 -166 -50 4 -43 -35 10 -57 42 -18 41 -19 -13 -15 -33 3 -70 23 -86 49 -27 40 -26 42 13 32 49 -13 51 0 10 63 -62 94 62 178 138 94z"/> <path d="M5395 5386 c-19 -5 -35 -18 -35 -29 0 -10 -8 -14 -18 -8 -9 6 -28 -2 -40 -17 -13 -15 -41 -23 -63 -18 -21 6 -63 -5 -91 -24 -45 -29 -60 -30 -100 -9 -40 22 -53 20 -84 -8 -21 -18 -43 -27 -51 -20 -7 8 -13 4 -13 -8 0 -12 -40 -45 -90 -74 -104 -61 -114 -86 -32 -83 32 1 54 8 50 16 -9 13 123 84 162 87 11 1 36 9 56 18 21 9 56 7 82 -4 79 -37 195 6 129 47 -14 9 -18 5 -9 -9 17 -27 -7 -30 -46 -5 -35 22 -8 69 31 54 16 -7 57 2 90 20 33 17 65 27 71 21 5 -5 -9 -20 -31 -31 -54 -29 -47 -97 12 -111 26 -7 42 -19 37 -27 -5 -9 23 -12 63 -7 l73 8 -47 38 c-38 31 -52 33 -79 12 -28 -22 -29 -21 -6 8 21 27 21 35 0 42 -14 5 -20 16 -13 23 7 8 26 1 42 -16 16 -16 62 -35 102 -43 40 -7 73 -21 73 -31 0 -10 16 -18 35 -18 19 0 49 -10 65 -20 25 -17 23 -20 -10 -17 -134 11 -215 -3 -190 -33 14 -16 35 -30 47 -30 13 0 10 9 -7 20 -23 15 -16 19 30 20 71 0 134 -72 80 -93 -17 -6 -46 1 -65 16 -32 24 -32 24 -7 -8 51 -66 9 -56 -64 15 -40 38 -89 70 -109 70 -20 0 -46 9 -56 19 -25 25 -113 3 -96 -24 7 -12 5 -16 -5 -10 -26 15 -108 -19 -108 -45 0 -26 143 -4 162 24 14 22 101 -9 131 -47 39 -48 45 -159 9 -155 -78 7 -143 -4 -132 -22 7 -12 -10 -15 -44 -8 -43 8 -67 0 -96 -34 -23 -25 -27 -37 -10 -27 41 24 86 29 267 30 l157 0 -52 49 c-29 26 -52 58 -52 70 0 12 21 -1 47 -29 27 -29 70 -51 99 -51 57 0 89 -31 49 -47 -19 -7 -18 -10 2 -11 15 -1 54 -21 87 -45 75 -53 120 -13 49 45 -24 19 -38 39 -33 45 17 17 120 -11 109 -29 -15 -24 25 -23 72 3 48 25 50 13 4 -33 -33 -34 -33 -35 10 -23 25 6 45 3 45 -7 0 -10 -19 -18 -43 -18 -24 0 -38 -5 -32 -12 27 -27 -35 -63 -80 -46 -25 9 -45 12 -45 5 0 -7 -14 0 -32 15 -18 15 -56 30 -85 34 -28 3 -64 16 -78 28 -14 12 -32 16 -38 9 -7 -6 2 -18 20 -25 18 -7 33 -26 33 -42 0 -17 22 -48 49 -69 28 -22 44 -51 38 -67 -6 -16 3 -43 21 -61 18 -17 32 -45 32 -61 0 -16 10 -45 23 -65 24 -39 -35 -123 -86 -123 -13 0 -18 6 -11 13 28 27 -27 91 -57 66 -32 -26 -40 -68 -10 -50 10 6 24 3 31 -9 7 -11 5 -20 -5 -20 -10 0 -33 -36 -53 -80 -33 -76 -72 -107 -72 -57 0 41 -21 4 -32 -55 -6 -31 -16 -62 -22 -68 -7 -5 -7 10 -1 35 6 25 3 45 -7 45 -10 0 -18 -10 -18 -21 0 -12 -10 -15 -23 -7 -16 10 -20 1 -12 -30 10 -36 4 -43 -31 -38 -28 4 -45 -6 -50 -29 -5 -23 2 -31 21 -24 17 6 37 -8 50 -35 15 -31 23 -36 24 -14 1 32 61 98 90 98 8 0 10 -13 4 -28 -6 -16 3 -34 20 -40 42 -17 51 -15 38 7 -6 10 -3 24 9 31 11 7 20 21 20 32 0 11 -8 15 -18 9 -9 -6 -22 6 -27 26 -8 29 0 35 38 27 49 -9 49 -9 12 -124 -6 -16 7 -7 27 20 21 28 35 64 32 80 -3 17 23 47 58 68 40 24 54 42 39 51 -26 17 11 121 43 121 10 0 12 -11 4 -25 -8 -14 2 -10 24 7 45 39 91 29 74 -17 -10 -24 -3 -29 27 -21 28 7 40 0 42 -27 1 -20 -10 -37 -26 -37 -26 0 -38 -24 -31 -65 1 -8 -7 -15 -18 -15 -26 0 -25 32 3 86 22 44 22 44 -18 4 -21 -22 -35 -53 -30 -70 8 -27 6 -27 -13 0 -11 17 -16 46 -10 65 6 20 0 35 -13 35 -15 0 -20 -19 -14 -50 5 -28 2 -56 -8 -62 -32 -19 -17 -47 18 -34 19 7 29 6 22 -2 -6 -7 -36 -18 -66 -24 -73 -13 -134 -71 -112 -106 13 -22 22 -18 40 15 26 51 72 56 89 11 16 -43 15 -48 -9 -48 -12 0 -15 10 -7 23 8 13 3 19 -13 13 -44 -14 -45 -56 -1 -56 28 0 37 -9 29 -30 -8 -21 -2 -27 18 -19 17 6 35 -2 42 -20 10 -25 1 -29 -48 -21 -45 8 -59 3 -59 -22 0 -20 -11 -28 -29 -21 -17 6 -35 3 -42 -8 -6 -10 -33 -19 -59 -19 -30 0 -52 -15 -60 -40 -9 -28 -30 -40 -73 -40 -34 0 -54 8 -47 20 7 11 3 20 -7 20 -11 0 -26 -18 -33 -40 -7 -22 -22 -40 -33 -40 -12 0 -16 14 -9 32 7 17 12 40 12 50 0 10 13 18 29 18 16 0 39 18 51 41 24 44 10 119 -22 119 -12 0 -10 -17 3 -42 34 -63 -5 -87 -62 -37 -39 34 -43 47 -24 78 33 54 -45 129 -82 78 -21 -28 -29 -22 -63 48 -44 90 -78 44 -50 -65 13 -50 100 -63 117 -18 3 10 15 18 26 18 11 0 13 -10 5 -23 -9 -14 -5 -18 9 -9 13 8 23 5 23 -7 0 -11 -10 -21 -21 -21 -12 0 -15 -11 -6 -25 11 -19 8 -20 -14 -2 -22 18 -37 18 -64 -2 -45 -32 -44 -63 0 -89 19 -12 28 -21 19 -21 -9 -1 -2 -16 16 -34 22 -21 29 -50 21 -82 -8 -31 -5 -44 8 -35 12 7 21 3 21 -9 0 -11 -12 -21 -27 -21 -52 0 -57 -160 -7 -203 29 -25 34 -36 14 -32 -18 3 -27 -7 -23 -25 20 -85 17 -96 -29 -117 -49 -22 -66 -63 -27 -63 12 0 40 10 63 22 30 16 37 16 27 0 -7 -12 -4 -22 8 -22 11 0 21 -14 21 -31 0 -17 8 -26 18 -20 10 6 14 28 9 48 -7 24 1 36 23 36 23 0 30 -12 22 -40 -6 -23 0 -53 12 -67 17 -21 14 -24 -14 -13 -23 9 -45 1 -62 -23 -22 -29 -44 -33 -122 -23 -62 8 -86 6 -67 -6 20 -12 2 -16 -55 -12 -46 3 -107 21 -134 39 -28 19 -59 29 -69 23 -10 -6 -22 0 -28 14 -7 19 -15 18 -31 -5 -14 -20 -21 -22 -22 -5 0 13 -22 30 -49 37 -72 18 -136 133 -101 181 18 26 20 44 6 61 -11 14 -27 54 -36 90 -8 36 -23 84 -31 106 -15 36 -13 37 17 13 19 -16 34 -36 34 -46 0 -10 36 -77 80 -149 44 -73 80 -145 80 -161 0 -15 13 -33 30 -40 16 -6 25 -19 19 -29 -6 -10 2 -12 18 -6 17 6 48 2 69 -10 35 -18 39 -16 29 19 -5 22 -15 36 -20 31 -28 -28 -145 101 -194 213 -30 69 -63 144 -75 168 -11 24 -15 53 -7 65 30 49 -9 108 -49 72 -33 -30 -44 -30 -140 2 l-105 34 12 83 11 83 -69 -8 c-38 -5 -70 -1 -71 9 -14 111 -8 167 15 167 30 0 37 71 9 89 -10 6 -23 -12 -30 -40 -7 -27 -32 -69 -55 -92 -26 -26 -42 -67 -41 -103 1 -44 -4 -54 -21 -37 -13 13 -41 24 -64 25 -23 0 -30 6 -16 11 28 12 14 47 -18 47 -12 0 -15 -23 -8 -58 8 -36 -3 -107 -30 -190 -41 -128 -41 -208 1 -182 25 16 25 -20 0 -110 -11 -42 -38 -78 -65 -90 -32 -14 -44 -35 -41 -70 9 -101 39 -251 59 -290 138 -268 135 -234 64 -653 -13 -74 -17 -175 -10 -225 9 -71 6 -92 -16 -92 -17 0 -24 -14 -17 -40 6 -22 19 -40 30 -40 22 0 -139 -155 -172 -166 -13 -4 -8 -21 12 -41 41 -41 56 -42 56 -4 0 40 102 91 180 91 69 0 93 -43 265 -480 65 -164 98 -222 140 -246 33 -19 55 -49 55 -74 0 -68 81 -238 119 -250 33 -10 81 -89 81 -132 0 -12 29 -55 64 -97 l64 -76 41 63 c25 37 92 86 166 122 68 33 121 69 118 80 -7 21 -4 24 86 133 67 80 77 117 31 117 -49 0 -34 68 26 126 67 64 94 70 64 14 -23 -44 -9 -88 21 -69 54 33 19 129 -46 130 -136 1 -144 26 -168 470 l-12 241 65 75 c79 90 80 89 138 -127 79 -294 84 -306 109 -281 26 26 30 275 6 392 l-17 81 92 21 c54 13 92 14 92 3 0 -10 8 -13 19 -7 10 6 25 -9 33 -34 20 -60 11 -183 -13 -192 -10 -3 -19 -18 -19 -33 0 -15 -11 -31 -25 -37 -20 -8 -20 -10 0 -11 18 -2 20 -13 7 -37 -10 -19 -30 -75 -44 -125 -14 -49 -32 -99 -39 -110 -8 -11 -20 -38 -26 -60 -6 -22 -6 14 -1 80 7 77 4 109 -8 90 -38 -61 -48 -326 -13 -312 18 6 39 12 47 12 29 0 82 144 82 224 0 59 15 102 55 153 30 40 83 122 117 182 34 61 70 111 80 111 10 0 31 9 46 18 19 13 24 11 14 -5 -8 -13 -6 -23 5 -23 28 0 103 127 103 176 0 23 29 66 66 98 36 31 78 82 95 114 16 32 44 62 62 67 19 5 44 35 58 66 37 90 306 238 514 283 92 20 213 60 269 88 55 28 112 46 127 40 48 -18 -24 173 -85 225 l-56 47 50 -12 c28 -6 57 -12 65 -12 8 0 15 -16 15 -36 0 -20 28 -63 62 -95 263 -252 559 -724 694 -1109 105 -303 392 -1415 436 -1695 12 -81 17 -85 81 -85 78 0 77 -9 29 240 -25 124 -31 194 -17 203 11 7 5 20 -15 32 -29 16 -34 39 -26 122 8 78 4 103 -17 103 -34 0 -35 24 -2 59 20 21 20 24 0 13 -14 -8 -25 -4 -25 8 0 12 -10 16 -23 8 -17 -10 -19 9 -10 69 8 48 6 83 -5 83 -21 0 -35 36 -52 139 -7 38 -22 81 -33 95 -14 16 -14 26 -2 26 11 0 15 22 10 50 -5 27 -17 45 -27 39 -10 -6 -12 3 -5 21 7 18 -2 42 -22 57 -23 17 -30 42 -23 81 6 31 -3 94 -19 139 -15 46 -30 101 -31 123 -2 33 -4 34 -12 5 -7 -27 -14 -29 -35 -10 -19 18 -21 36 -7 63 14 26 12 53 -5 90 -14 28 -27 69 -29 89 -2 20 -12 43 -22 50 -31 22 -69 125 -55 148 9 14 1 17 -24 7 -21 -8 -32 -8 -25 -1 7 7 -3 42 -24 78 -20 36 -48 87 -63 113 -15 27 -31 53 -37 58 -35 35 -137 198 -150 240 -8 28 -25 57 -38 65 -15 11 -11 24 13 42 49 38 19 57 -34 22 -42 -28 -48 -26 -83 25 -21 30 -61 77 -89 105 -28 28 -58 68 -65 88 -11 27 -21 32 -39 17 -18 -15 -37 -12 -65 8 -34 26 -36 32 -10 50 23 16 20 18 -15 8 -26 -7 -45 -4 -45 9 0 11 -12 21 -26 21 -17 0 -25 22 -22 60 2 33 -2 60 -9 60 -8 0 -31 32 -52 70 -20 39 -45 70 -54 70 -9 0 -17 14 -17 30 0 17 -14 30 -31 30 -17 0 -26 8 -20 18 6 10 -7 39 -28 65 -22 26 -40 36 -40 22 -1 -32 -61 -33 -61 -2 0 13 -6 18 -13 11 -7 -7 -34 4 -61 25 -69 55 -145 174 -125 194 10 10 21 36 24 57 3 22 12 49 19 61 8 12 13 52 12 90 l-2 69 -36 -85 c-20 -47 -46 -85 -57 -85 -12 0 -21 -9 -21 -19 0 -11 -27 -65 -59 -120 -51 -87 -55 -101 -25 -102 18 -1 -5 -19 -53 -40 -95 -42 -123 -37 -123 22 0 45 -31 52 -47 11 -6 -16 2 -34 18 -40 16 -6 29 -20 29 -31 0 -32 -60 -25 -72 8 -9 24 -19 24 -50 5 -21 -13 -34 -34 -30 -47 5 -13 -8 -28 -29 -33 -22 -6 -38 -22 -37 -37 1 -20 4 -21 11 -2 6 14 25 25 44 25 28 -1 29 -3 3 -20 -26 -17 -25 -19 5 -20 19 0 35 -13 35 -30 0 -16 11 -30 25 -30 17 -1 16 -7 -4 -19 -19 -12 -39 -11 -56 3 -20 17 -23 14 -14 -9 9 -23 -8 -39 -58 -57 -39 -14 -66 -33 -61 -41 6 -9 -3 -11 -19 -5 -18 7 -34 -5 -43 -31 -15 -49 -93 -55 -137 -11 -34 33 -73 40 -73 12 0 -19 -143 -80 -211 -90 -21 -3 -37 -12 -34 -19 3 -7 5 -22 5 -32 0 -21 140 -16 176 6 11 7 24 3 28 -10 9 -26 35 -18 116 35 30 20 36 21 15 3 -19 -16 -35 -51 -35 -77 -1 -55 -53 -126 -106 -145 -20 -7 -32 -21 -25 -31 6 -9 -7 -22 -29 -28 -22 -6 -40 -2 -40 8 0 42 -4 49 -44 63 -23 9 -52 6 -67 -6 -18 -14 -29 -15 -38 0 -8 12 -44 21 -81 21 -99 0 -105 35 -13 76 l79 36 -78 69 c-46 41 -78 87 -78 114 0 54 -16 57 -52 10 -32 -42 -40 5 -9 54 12 19 11 39 -3 56 -12 14 -15 32 -8 40 8 8 21 3 30 -11 10 -17 23 1 38 51 57 190 364 276 364 102 0 -45 72 -157 101 -157 11 0 19 13 19 29 0 15 18 34 41 41 48 16 43 48 -12 79 -57 31 -69 53 -67 131 1 39 5 60 11 47 5 -12 27 -18 48 -12 32 8 35 15 16 39 -19 23 -19 32 1 45 19 11 20 20 4 30 -35 21 -25 51 13 39 33 -10 33 -10 0 12 -19 12 -44 17 -54 11 -33 -21 -42 24 -10 50 23 19 25 29 7 40 -34 21 -6 121 31 107 16 -6 24 -23 18 -38 -6 -16 4 -25 27 -23 29 2 36 -11 33 -72 -1 -41 5 -70 14 -65 8 6 11 28 5 50 -8 31 -1 40 32 40 24 0 42 -13 42 -30 0 -46 34 -36 47 14 7 26 -1 58 -19 78 -20 23 -23 38 -9 47 12 8 22 -3 23 -23 0 -21 5 -26 11 -11 15 35 47 31 47 -6 0 -54 47 -88 76 -56 42 45 70 32 55 -25 -12 -49 -10 -50 19 -20 40 39 52 41 38 5 -6 -17 6 -32 31 -38 22 -6 41 -2 41 10 0 23 -77 95 -103 95 -9 0 -17 14 -17 32 0 20 11 28 30 21 20 -8 30 1 30 26 0 21 11 42 25 48 15 6 11 10 -10 11 -19 1 -35 -8 -35 -19 0 -24 -86 -4 -96 23 -4 8 -20 11 -35 5 -16 -6 -29 -1 -29 11 0 12 9 22 21 22 11 0 18 13 15 29 -3 16 12 43 34 61 22 18 28 26 12 19 -22 -12 -25 -1 -14 56 9 50 5 74 -12 82 -14 5 -6 11 19 11 29 1 45 -10 45 -30 0 -27 5 -28 30 -8 17 14 30 50 30 81 0 57 -31 95 -56 68 -8 -8 -3 -18 11 -23 29 -11 34 -46 7 -46 -30 0 -44 64 -20 93 18 21 30 22 51 5 22 -19 27 -7 27 66 0 69 11 100 50 136 28 26 50 64 50 85 0 23 9 32 23 23 14 -8 18 -5 10 7 -7 12 10 40 38 63 34 26 47 50 37 66 -10 17 -3 16 20 -3 33 -27 36 -26 29 10 -4 21 -20 39 -35 39 -15 0 -35 18 -44 40 -8 22 -16 28 -17 13 -1 -23 -7 -23 -31 -3 -53 44 -133 44 -110 0 11 -20 31 -41 45 -46 14 -4 18 -16 10 -24 -8 -9 -29 -3 -48 12 -30 25 -31 24 -10 -16 33 -62 28 -105 -7 -59 -26 35 -30 35 -60 5 -18 -17 -25 -33 -16 -35 48 -9 59 -12 96 -29 55 -25 60 -67 6 -53 -27 7 -51 -2 -69 -26 -32 -43 -36 -23 -6 32 26 50 -3 51 -77 4 -65 -41 -104 -89 -91 -110 5 -8 -5 -15 -22 -15 -17 0 -31 -8 -31 -19 0 -10 -20 -21 -45 -25 -25 -4 -43 -18 -40 -31 3 -14 -5 -25 -16 -25 -12 0 -15 -10 -8 -22 10 -15 0 -18 -28 -9 -40 13 -53 -3 -45 -54 3 -22 -27 -18 -52 7 -17 17 -10 34 25 67 27 25 42 51 35 59 -8 7 6 19 30 25 24 6 44 25 44 42 0 20 13 26 40 19 26 -7 40 0 40 18 0 15 8 28 18 28 10 0 14 18 8 40 -9 32 5 47 67 73 73 31 75 33 31 49 -64 24 -34 65 38 51 72 -15 59 41 -14 59 -62 16 -62 48 1 48 31 0 53 14 61 41 9 27 24 38 45 30 25 -10 26 -6 7 17 -18 22 -18 30 2 38 17 7 13 11 -9 12 -19 1 -36 -9 -37 -23 0 -14 -10 1 -22 32 -17 48 -30 56 -78 48 -32 -4 -53 -4 -48 2 10 10 -51 61 -74 62 -44 2 -1 -121 50 -146 55 -26 55 -28 13 -39 -23 -6 -37 -20 -31 -31 15 -24 -31 -40 -128 -47 -84 -5 -216 -74 -150 -78 22 -2 54 -1 70 1 20 3 23 -2 10 -16 -25 -26 -170 -43 -170 -20 0 9 8 17 18 17 9 0 22 16 27 36 7 29 -2 34 -56 28 -36 -4 -71 3 -79 16 -10 16 1 22 33 20 74 -7 90 1 47 22 -30 14 -20 16 40 9 l80 -9 -58 31 c-39 21 -50 36 -33 46 30 19 -19 41 -92 41 -28 0 -44 9 -37 20 19 31 -9 24 -44 -11 -21 -22 -49 -28 -84 -19 -62 16 -132 83 -98 95 13 4 16 18 8 31 -15 25 -19 25 -77 10z m402 -429 c56 -60 118 -65 96 -7 -15 38 83 51 118 16 39 -39 19 -66 -47 -66 -33 0 -45 -7 -30 -16 21 -13 -26 -14 -181 -5 -10 1 -12 15 -6 31 8 20 -1 30 -28 30 -45 0 -49 11 -14 50 32 37 24 39 92 -33z m531 -266 c-8 -21 0 -25 35 -17 26 7 41 5 34 -3 -8 -8 -61 -18 -118 -22 -58 -5 -110 -13 -115 -18 -15 -15 38 -72 64 -69 52 6 72 -4 72 -38 0 -29 -15 -35 -75 -32 -146 6 -156 8 -132 23 13 8 31 47 41 85 19 73 81 119 160 120 31 0 41 -9 34 -29z m-154 -259 c9 -8 7 -14 -4 -11 -41 8 -54 -2 -34 -27 15 -18 14 -42 -5 -85 -14 -32 -35 -81 -47 -109 -20 -46 -22 -44 -15 25 7 68 4 73 -29 55 -56 -30 -58 -26 -35 45 11 36 24 76 27 90 4 13 20 19 37 13 17 -7 31 -3 31 8 0 23 50 20 74 -4z m76 -142 c0 -37 -4 -63 -8 -59 -4 5 -21 -7 -36 -26 -25 -31 -27 -27 -15 35 27 156 59 183 59 50z m-84 -162 c-39 -29 -126 -38 -126 -12 0 22 104 59 136 48 18 -6 15 -16 -10 -36z m107 -98 c31 -32 21 -70 -20 -70 -13 0 -26 23 -28 50 -5 58 6 62 48 20z m-1897 -382 l46 -31 -76 -39 c-42 -21 -97 -43 -123 -47 -25 -5 -59 -20 -75 -32 -22 -19 -28 -17 -28 12 0 47 57 109 101 109 19 0 45 14 59 30 31 38 40 37 96 -2z m2344 -169 c14 -32 32 -59 42 -59 9 0 27 -19 39 -42 17 -32 17 -39 0 -29 -16 10 -22 -11 -20 -72 2 -48 -3 -105 -12 -127 -11 -28 6 -19 57 30 67 64 70 72 40 105 -30 32 -29 35 8 35 27 0 50 -21 66 -60 14 -34 40 -70 58 -80 29 -18 29 -22 0 -45 -62 -49 -65 -110 -7 -164 77 -71 220 -123 257 -93 18 15 33 17 40 5 19 -30 -83 -100 -176 -123 -267 -66 -342 -90 -453 -142 -81 -38 -164 -101 -241 -182 -112 -117 -155 -130 -86 -26 17 26 26 58 18 69 -14 24 40 119 119 212 28 32 51 68 51 80 0 37 42 65 81 54 21 -5 33 -19 25 -31 -8 -14 1 -15 26 -5 95 39 179 53 239 42 59 -11 64 -8 55 28 -7 27 -28 42 -63 43 -73 4 -67 4 -123 -11 -43 -11 -45 -10 -14 10 34 21 31 26 -30 57 -66 35 -66 34 -131 -26 l-66 -61 22 62 c56 162 -22 357 -86 213 -13 -31 -38 -67 -55 -80 -26 -22 -25 -25 7 -25 50 -1 30 -49 -24 -57 -24 -4 -38 -15 -32 -25 6 -11 1 -19 -12 -19 -39 0 -118 -87 -119 -131 0 -23 -11 -52 -24 -65 -17 -17 -17 -24 -2 -24 27 0 206 175 206 202 0 31 57 20 76 -15 29 -50 6 -108 -86 -217 -47 -55 -127 -165 -178 -245 -104 -160 -161 -190 -146 -77 11 85 53 146 134 195 34 21 78 66 96 100 19 34 56 90 84 125 52 65 -24 11 -216 -152 -78 -67 -124 -72 -124 -14 0 59 -45 36 -64 -33 -23 -78 -5 -194 64 -426 68 -228 58 -275 -52 -254 -59 11 -68 7 -68 -27 0 -22 -10 -46 -23 -54 -15 -9 -19 9 -14 59 8 62 2 74 -44 93 -29 12 -82 49 -118 82 -70 64 -121 64 -121 1 0 -48 -116 -163 -150 -150 -28 10 -34 25 -120 267 -29 83 -62 167 -73 187 -14 26 -14 33 2 24 11 -7 21 -4 21 8 0 24 -21 27 -50 6 -32 -24 -28 -165 4 -165 20 0 25 -18 18 -65 -6 -36 -16 -119 -23 -185 -7 -66 -23 -127 -36 -135 -16 -10 -15 -14 4 -15 23 0 23 -6 3 -30 -17 -20 -26 -105 -28 -245 -1 -203 4 -257 45 -460 21 -101 8 -184 -30 -199 -15 -6 -27 -38 -27 -71 0 -79 -96 -177 -124 -127 -22 40 -50 41 -89 2 -32 -32 -102 -39 -139 -15 -32 22 -48 103 -22 118 13 9 7 19 -17 28 -22 7 -45 4 -53 -8 -8 -12 -20 -16 -27 -8 -15 14 -4 44 35 99 20 27 17 41 -13 74 -31 36 -33 46 -9 75 25 30 24 31 -15 11 -36 -20 -48 -16 -79 27 -21 27 -59 50 -88 51 -46 2 -45 4 14 23 83 26 141 7 106 -35 -26 -32 -21 -35 61 -39 48 -2 50 2 44 91 -6 89 -4 94 43 91 40 -2 48 -11 40 -44 -6 -25 7 -60 36 -91 64 -70 75 -179 16 -164 -22 6 -54 29 -70 51 -28 41 -28 41 -25 -4 2 -24 23 -66 47 -92 24 -25 40 -51 34 -56 -5 -5 5 -31 22 -58 18 -26 26 -54 19 -62 -8 -7 -5 -13 7 -13 111 0 96 411 -21 535 -44 47 -65 58 -77 40 -13 -22 -27 79 -18 132 2 10 -6 28 -17 42 -11 14 -14 32 -6 41 8 9 -1 10 -21 3 -29 -10 -35 -4 -30 31 11 75 49 61 129 -48 l77 -105 13 159 c7 88 33 214 56 280 35 96 43 161 42 326 -3 304 107 604 221 604 9 0 21 18 28 40 21 65 81 46 199 -62 133 -123 134 -127 26 -150 -55 -12 -87 -30 -91 -53 -6 -32 -2 -32 50 -7 130 65 163 76 202 63 77 -24 64 -65 -48 -141 -109 -75 -125 -97 -88 -120 26 -16 26 -84 -1 -101 -11 -7 -34 -1 -50 12 -39 32 -44 25 -52 -71 -7 -78 -5 -80 57 -83 95 -5 168 89 356 453 l159 310 303 300 c167 165 310 321 317 346 17 56 54 33 91 -57z m-2332 -51 c18 -7 27 -20 21 -30 -6 -10 13 -18 42 -18 46 0 52 -7 44 -50 -5 -27 -1 -50 9 -50 29 0 9 -126 -21 -136 -21 -7 -26 12 -20 84 8 102 -4 111 -63 52 -22 -22 -53 -40 -69 -40 -16 0 -34 -9 -41 -20 -7 -11 -3 -20 8 -20 36 0 122 -101 122 -143 0 -79 -125 -177 -226 -177 l-89 0 28 83 c16 46 23 98 15 115 -8 18 -17 41 -20 52 -33 112 -34 110 12 110 39 0 43 8 34 57 -23 111 89 179 214 131z m2644 -95 c69 -59 103 -244 53 -293 -26 -27 -27 -25 -6 17 22 43 21 44 -16 25 -52 -28 -56 -28 -56 7 0 16 12 34 26 40 41 15 32 51 -24 104 -28 26 -46 55 -40 65 6 9 -19 32 -54 49 l-65 32 64 1 c39 0 85 -18 118 -47z m-2360 -357 c-23 -62 10 -102 136 -166 56 -28 119 -143 102 -185 -12 -29 -17 -30 -25 -6 -15 40 -91 100 -111 88 -19 -13 91 -144 111 -133 44 24 5 -60 -64 -138 -61 -70 -74 -95 -55 -114 18 -18 17 -28 -6 -42 -19 -12 -27 -41 -23 -82 6 -60 4 -62 -26 -32 -34 34 -98 24 -85 -13 7 -22 15 -25 84 -30 17 -2 30 -18 30 -35 0 -27 -5 -28 -30 -8 -17 14 -37 19 -45 11 -19 -18 -19 -150 -1 -139 8 5 19 -20 25 -56 7 -36 20 -108 29 -160 18 -103 13 -116 -39 -116 -26 0 -45 32 -69 115 -19 63 -37 124 -41 135 -3 11 -7 -3 -7 -32 -1 -28 11 -96 28 -150 35 -117 35 -113 10 -98 -11 7 -25 -4 -32 -24 -25 -79 -50 -131 -59 -122 -5 6 3 46 19 90 27 76 26 85 -21 168 -97 170 -159 207 -140 83 7 -42 5 -59 -3 -39 -9 21 -23 34 -32 30 -10 -3 -25 14 -34 39 -10 27 -9 45 3 45 10 0 19 -10 19 -23 0 -13 5 -19 11 -13 16 16 -12 116 -33 116 -9 0 -12 -13 -6 -28 15 -38 -49 -29 -73 9 -16 25 -19 25 -19 -1 -1 -23 -6 -22 -22 6 -12 20 -17 48 -11 63 5 14 -4 46 -21 70 -44 63 -18 72 56 19 70 -50 64 -30 -28 88 -32 42 -54 80 -49 86 13 13 125 -129 157 -198 13 -30 31 -54 38 -54 29 0 128 -100 152 -154 24 -54 25 -52 26 51 2 99 -1 106 -32 80 -30 -24 -32 -23 -16 13 36 86 23 155 -38 189 -32 18 -64 49 -71 69 -12 34 -16 34 -45 5 -30 -30 -56 -25 -56 12 0 9 9 12 20 5 11 -7 20 -3 20 8 0 11 -9 25 -20 32 -11 7 -20 30 -20 52 0 22 -8 36 -17 30 -30 -18 0 97 31 122 17 13 23 34 15 48 -10 15 -7 19 8 10 13 -8 23 -4 23 8 0 12 9 17 20 10 12 -7 15 -23 7 -34 -7 -12 -4 -17 7 -10 14 9 14 39 -1 93 -11 44 -15 86 -7 94 22 22 40 -7 42 -73 2 -53 5 -56 27 -26 30 40 33 73 5 56 -12 -7 -20 12 -20 47 0 33 13 64 29 70 17 6 32 47 37 97 5 47 8 14 8 -74 0 -137 5 -159 33 -154 19 3 33 -7 33 -24 0 -19 -11 -26 -30 -19 -19 7 -30 -1 -30 -22 0 -20 13 -30 35 -27 26 5 36 -9 39 -54 4 -56 3 -56 -11 -10 -10 33 -20 42 -30 25 -8 -13 -5 -43 7 -65 12 -23 17 -58 10 -79 -14 -45 18 -71 45 -36 27 35 45 193 23 206 -24 15 -23 102 1 148 14 25 11 47 -9 73 -27 36 -44 188 -18 162 16 -15 54 22 87 84 35 66 63 16 33 -62z m346 -428 c-13 -32 -25 -98 -28 -148 -10 -224 -37 -420 -59 -420 -46 0 -72 -45 -46 -77 20 -24 20 -28 0 -16 -14 9 -25 5 -25 -8 0 -12 -16 -44 -37 -69 l-36 -47 -25 70 c-14 39 -20 75 -14 82 7 6 12 -2 12 -19 0 -17 14 -42 30 -56 21 -17 30 -18 30 -2 0 12 -10 22 -22 22 -28 0 -4 104 29 124 17 12 17 15 -2 16 -14 0 -25 25 -25 57 0 71 38 183 62 183 10 0 18 25 18 56 0 31 9 65 20 76 12 12 25 41 30 66 16 86 35 132 68 164 41 41 50 19 20 -54z m-853 -684 c19 -17 35 -22 35 -12 0 9 23 -17 52 -59 73 -108 53 -105 -67 10 -126 120 -140 164 -20 61z m568 -405 c14 -49 27 -91 27 -94 0 -3 -13 -5 -30 -5 -17 0 -30 18 -30 39 0 27 -10 36 -29 28 -17 -6 -28 -21 -25 -33 2 -12 -11 -25 -28 -29 -44 -9 -32 106 16 159 46 52 68 38 99 -65z m-273 37 c0 -23 -15 -36 -40 -36 -26 0 -40 13 -40 39 0 26 13 38 40 36 24 -2 40 -18 40 -39z m156 -200 c45 -45 24 -61 -67 -51 -100 11 -120 22 -100 54 18 29 137 27 167 -3z"/> <path d="M5271 2677 c-51 -46 -106 -107 -120 -136 -40 -78 -70 -201 -49 -201 10 0 18 20 18 45 0 65 64 160 157 235 75 60 115 115 96 133 -4 5 -50 -30 -102 -76z"/> <path d="M5060 1750 c0 -53 6 -91 13 -83 8 7 14 44 14 83 0 39 -6 76 -14 83 -7 8 -13 -30 -13 -83z"/> <path d="M4580 2674 c0 -13 14 -64 31 -114 55 -163 49 -152 70 -119 15 24 18 23 19 -8 0 -32 9 -29 69 20 67 56 90 105 51 110 -11 1 -29 3 -39 5 -11 1 -40 20 -65 42 -72 62 -136 93 -136 64z"/> <path d="M4429 2413 c7 -32 28 -72 45 -90 30 -30 32 -28 18 27 -8 33 -29 74 -46 90 -28 27 -30 24 -17 -27z"/> <path d="M5796 5317 c-32 -33 -31 -36 10 -49 24 -7 49 -19 54 -26 25 -31 140 -82 140 -63 0 12 -13 27 -30 34 -16 6 -30 24 -30 39 0 15 -9 28 -19 28 -11 0 -15 14 -8 30 8 22 2 27 -23 17 -19 -7 -40 -4 -47 6 -7 11 -28 4 -47 -16z"/> <path d="M2745 5315 c-36 -11 -65 -28 -65 -36 0 -9 -14 -30 -31 -48 -18 -17 -23 -31 -12 -31 12 0 26 9 33 20 7 11 44 34 81 49 38 16 69 38 69 50 0 12 -2 20 -5 19 -3 -1 -34 -11 -70 -23z"/> <path d="M2737 5185 c-37 -30 -70 -61 -73 -69 -4 -8 -18 -9 -31 -4 -14 5 -46 -13 -71 -40 -25 -27 -57 -47 -69 -44 -13 3 -16 2 -8 -3 33 -18 12 -47 -25 -35 -24 8 -40 4 -40 -10 0 -12 -9 -17 -19 -11 -10 7 -16 -4 -12 -24 4 -20 -14 -72 -41 -116 -26 -43 -48 -65 -48 -48 0 17 11 42 24 55 13 13 19 28 13 33 -5 6 -30 -25 -55 -69 -37 -67 -39 -80 -13 -80 17 0 31 -10 31 -21 0 -12 -8 -17 -17 -11 -27 17 -85 -59 -72 -93 6 -17 2 -37 -10 -44 -11 -7 -21 -44 -21 -81 0 -37 -8 -72 -17 -78 -10 -6 -13 14 -7 44 5 30 3 48 -6 40 -44 -42 -26 -231 22 -231 27 0 48 8 48 19 0 10 -9 13 -20 6 -11 -7 -20 -3 -20 9 0 11 9 21 20 21 12 0 16 23 9 55 -9 38 -6 47 7 28 15 -21 25 -10 43 45 13 40 41 82 63 93 21 11 37 31 36 45 -1 18 -4 18 -11 -1 -6 -14 -19 -25 -29 -25 -11 0 -9 19 4 44 16 29 17 46 3 51 -24 8 -9 85 17 85 9 0 39 24 66 54 57 61 88 52 52 -14 -21 -39 -19 -41 13 -22 72 40 101 67 61 54 -30 -10 -36 -2 -30 43 3 31 18 55 34 55 15 0 33 14 40 30 7 17 26 30 42 29 17 -1 51 21 76 49 28 33 41 39 33 17 -19 -51 1 -43 41 17 22 35 25 47 7 36 -15 -9 -40 -19 -55 -21 -15 -2 -34 -14 -42 -27 -7 -12 -42 -26 -77 -30 -59 -8 -62 -6 -32 24 28 28 36 28 53 4 16 -23 18 -22 9 5 -10 33 100 157 141 157 12 0 27 14 33 30 16 42 6 38 -70 -25z"/> <path d="M2961 5176 c-23 -8 -55 -9 -72 -3 -33 13 -129 -28 -129 -55 0 -8 25 -11 55 -7 68 11 265 70 265 80 0 11 -75 2 -119 -15z"/> <path d="M4922 5128 c-46 -58 -53 -88 -22 -88 39 0 20 -61 -24 -78 -43 -15 -42 -16 9 -26 31 -6 51 -1 49 10 -2 12 23 22 56 22 37 1 58 12 55 27 -3 14 4 25 15 25 11 0 20 14 20 32 0 20 -11 28 -30 21 -16 -7 -30 -3 -30 8 0 10 19 19 41 19 23 0 37 8 31 17 -13 20 -112 6 -112 -16 0 -8 -14 -14 -30 -14 -26 0 -25 5 3 36 18 21 29 42 22 48 -6 6 -29 -13 -53 -43z"/> <path d="M2975 5112 c-50 -27 -97 -44 -103 -37 -7 6 -12 -3 -12 -21 0 -20 -11 -29 -28 -22 -15 6 -33 3 -39 -7 -9 -14 79 -19 107 -5 6 3 17 3 26 2 10 -2 12 5 6 15 -7 10 19 33 57 51 38 18 75 42 81 53 18 28 6 24 -95 -29z"/> <path d="M5114 5066 c-29 -46 -8 -129 24 -97 21 22 24 41 9 74 -12 27 -25 36 -33 23z"/> <path d="M5303 5050 c-55 -30 -111 -84 -63 -61 17 7 13 0 -8 -17 -21 -17 -46 -26 -55 -20 -10 6 -45 -9 -78 -33 -34 -24 -67 -38 -73 -31 -7 7 -1 12 14 12 15 0 22 5 16 11 -17 17 -116 -13 -116 -34 0 -11 9 -14 20 -7 44 27 17 -30 -33 -69 -63 -50 -79 -42 -45 22 22 43 22 45 -9 19 -19 -15 -40 -22 -46 -15 -7 7 -31 -8 -53 -32 l-40 -45 14 57 c10 41 7 52 -10 42 -16 -10 -19 -7 -9 10 10 15 5 33 -11 43 -22 14 -20 17 8 18 20 0 55 18 79 40 54 51 5 57 -85 10 -52 -27 -57 -38 -47 -95 32 -169 245 -380 297 -295 7 11 34 20 60 20 26 0 55 11 64 25 9 14 32 34 53 45 20 11 35 29 33 40 -4 27 -62 13 -110 -27 -37 -31 -38 -31 -12 2 15 20 18 35 6 35 -11 0 -35 5 -52 12 -18 7 -32 2 -32 -11 0 -13 10 -17 23 -9 14 9 18 5 9 -8 -7 -12 -26 -17 -43 -11 -16 6 -24 19 -18 29 6 10 2 18 -9 18 -11 0 -25 -9 -32 -20 -7 -11 -21 -20 -31 -20 -11 0 -3 17 16 37 19 20 39 33 43 30 5 -4 20 3 34 15 23 19 76 32 163 42 14 1 25 15 25 31 0 15 8 22 19 16 10 -6 24 -3 31 9 7 11 34 20 60 20 30 0 52 15 60 41 11 34 19 37 43 16 24 -20 34 -19 48 4 32 51 20 79 -32 79 -29 0 -46 9 -39 20 15 24 13 23 -47 -10z"/> <path d="M2980 5000 c-64 -57 -61 -74 8 -48 18 7 27 20 21 30 -6 10 1 18 16 18 15 0 45 13 66 29 38 29 38 30 -2 30 -23 1 -72 -26 -109 -59z"/> <path d="M2764 4920 c-19 -33 -41 -60 -49 -60 -8 0 -15 -13 -15 -28 0 -15 -13 -33 -30 -39 -40 -15 -39 -51 1 -45 17 3 44 31 61 63 16 33 45 70 63 84 18 14 25 25 16 25 -9 0 -5 14 9 30 18 22 19 30 2 30 -13 0 -39 -27 -58 -60z"/> <path d="M2805 4881 c-83 -105 -78 -124 18 -76 48 23 96 43 107 44 35 2 110 52 110 72 0 12 -18 10 -45 -4 -65 -36 -96 -38 -108 -5 -16 40 -31 34 -82 -31z"/> <path d="M3501 4891 c-14 -16 -44 -35 -68 -43 -24 -7 -59 -27 -78 -43 -19 -17 -35 -26 -35 -19 0 7 -38 -25 -85 -71 -47 -46 -96 -82 -110 -79 -13 3 -20 -6 -15 -20 6 -15 -32 -55 -89 -94 -55 -37 -115 -84 -133 -105 -43 -47 -82 -49 -46 -2 22 30 22 31 -3 9 -16 -14 -29 -34 -29 -43 0 -39 -93 -141 -116 -128 -13 7 -18 6 -10 -2 8 -9 -5 -53 -29 -98 -24 -46 -41 -91 -38 -100 2 -10 -10 -12 -27 -6 -33 13 -91 -94 -161 -296 -33 -95 -36 -117 -11 -102 36 22 101 171 88 204 -9 23 -5 29 11 19 13 -8 23 -8 21 2 -7 38 4 81 28 114 23 32 25 27 18 -38 -8 -71 -7 -72 34 -47 47 29 74 101 52 136 -7 12 -1 20 13 16 14 -3 26 9 27 25 9 129 223 391 287 352 10 -6 64 42 121 107 56 65 122 125 145 132 31 10 35 18 16 29 -17 11 13 36 94 76 116 59 183 115 163 135 -6 5 -21 -3 -35 -20z"/> <path d="M5291 4749 c-29 -27 -60 -49 -69 -49 -9 0 -32 -18 -52 -40 -28 -31 -30 -40 -8 -40 15 0 1 -14 -31 -31 -33 -17 -80 -26 -104 -20 -46 12 -82 -17 -48 -38 10 -7 14 -26 7 -43 -9 -25 2 -30 56 -25 54 6 67 0 65 -26 -1 -21 8 -30 25 -23 39 15 35 -9 -13 -69 -38 -49 -21 -101 25 -72 9 5 16 -9 16 -31 0 -30 9 -37 33 -28 25 10 29 6 17 -16 -10 -17 -1 -14 23 7 22 19 46 29 53 22 7 -7 19 2 26 20 7 18 21 27 32 20 11 -6 12 -18 3 -24 -59 -43 -130 -190 -110 -231 17 -35 21 -36 22 -7 0 19 9 35 18 35 33 0 41 -26 21 -64 -19 -35 -17 -37 20 -17 38 21 45 32 41 76 -1 8 -13 13 -26 10 -15 -3 -24 17 -24 50 1 38 13 57 41 62 22 4 49 15 59 25 10 10 33 18 50 18 18 0 23 -7 11 -15 -53 -39 9 -78 70 -45 6 4 23 7 39 8 19 1 30 26 32 73 2 75 -40 94 -111 50 -21 -12 -19 -6 5 22 19 22 35 55 35 74 0 58 -75 -6 -89 -76 -9 -46 -17 -54 -30 -32 -11 17 -11 43 0 64 26 48 24 57 -13 57 -17 0 -37 -18 -42 -40 -10 -37 -13 -37 -34 -9 -13 17 -32 30 -43 28 -38 -8 -69 1 -69 20 0 11 14 15 30 8 17 -6 30 -1 30 11 0 12 17 22 38 22 21 0 43 13 49 29 7 18 1 25 -15 19 -16 -6 -32 8 -38 34 -9 33 -6 38 11 21 28 -28 95 -30 95 -3 0 11 32 20 71 20 45 0 75 11 82 31 10 25 17 23 35 -15 23 -46 92 -76 92 -39 0 11 -15 35 -32 53 -18 17 -27 37 -21 44 22 21 -25 60 -133 111 -159 76 -166 77 -223 24z"/> <path d="M2824 4756 c-13 -13 -49 -25 -78 -25 -42 -1 -65 -19 -100 -81 -36 -63 -45 -71 -46 -36 0 24 9 49 20 56 33 20 22 53 -15 46 -19 -4 -36 -25 -37 -47 -1 -22 -12 -60 -25 -84 -13 -23 -23 -48 -23 -55 0 -23 89 14 126 53 20 21 44 33 54 27 9 -6 23 -1 30 10 7 11 20 16 28 11 8 -5 15 4 15 20 0 24 -6 23 -36 -4 -20 -18 -37 -23 -37 -12 0 31 60 87 79 76 9 -6 32 8 51 29 39 43 34 56 -6 16z"/> <path d="M2351 4705 c-6 -7 -11 -21 -11 -33 0 -12 8 -10 18 5 12 20 19 16 27 -15 6 -23 3 -42 -8 -42 -11 0 -14 -9 -7 -20 8 -12 28 -2 50 25 23 27 30 52 19 64 -22 22 -72 31 -88 16z"/> <path d="M4265 4670 c-21 -24 -15 -34 33 -59 33 -17 62 -50 66 -74 5 -36 76 -76 76 -43 0 5 -16 34 -35 63 -19 29 -45 71 -56 92 -28 50 -53 56 -84 21z"/> <path d="M2400 4520 c0 -11 -14 -20 -31 -20 -17 0 -26 -9 -19 -20 7 -11 -11 -59 -39 -106 -59 -101 -63 -123 -21 -107 38 15 38 4 0 -34 -17 -17 -22 -35 -12 -42 9 -6 47 50 83 124 36 74 70 143 76 153 5 10 -2 11 -16 3 -19 -12 -22 -5 -12 26 8 24 9 43 2 43 -6 0 -11 -9 -11 -20z"/> <path d="M2608 4521 c-45 -19 -148 -132 -148 -164 0 -11 -9 -14 -19 -8 -11 7 -34 -16 -52 -51 -18 -34 -25 -59 -16 -55 103 49 127 68 118 92 -6 15 -2 22 8 15 11 -6 34 18 52 54 18 36 53 82 76 101 47 38 44 41 -19 16z"/> <path d="M6768 4465 c40 -180 38 -339 -5 -350 -24 -6 -43 -3 -43 8 0 11 -9 14 -20 7 -36 -22 -21 -55 20 -44 24 6 47 -2 57 -21 30 -52 47 106 32 288 -7 92 -23 167 -34 167 -11 0 -14 -23 -7 -55z"/> <path d="M2693 4425 c-29 -47 -67 -85 -83 -85 -16 0 -43 -21 -60 -47 -21 -33 -45 -45 -76 -39 -29 6 -61 -8 -93 -43 -50 -54 -44 -65 19 -31 22 12 42 13 49 2 6 -10 -24 -32 -67 -49 -63 -25 -83 -47 -102 -107 -13 -42 -28 -89 -35 -106 -6 -16 -10 -37 -8 -45 2 -8 -5 -15 -14 -15 -26 0 -87 -235 -73 -279 6 -21 1 -44 -12 -52 -15 -10 -19 -7 -10 8 8 13 0 38 -18 56 -26 26 -28 36 -7 49 14 9 20 21 14 28 -18 18 -77 -48 -77 -86 1 -27 4 -28 18 -7 13 21 20 22 32 3 16 -25 -27 -64 -53 -48 -18 11 -45 -71 -29 -87 7 -6 12 2 12 20 0 17 14 36 30 42 17 7 30 2 30 -9 0 -11 9 -15 20 -8 11 7 20 3 20 -9 0 -11 -18 -21 -40 -21 -37 0 -50 -29 -42 -95 2 -13 -9 -49 -24 -80 -49 -97 -63 -177 -24 -145 17 14 29 40 26 57 -7 36 66 123 104 123 19 0 19 7 2 27 -22 27 7 75 41 66 8 -2 21 5 30 14 9 9 8 15 -3 12 -44 -8 -47 4 -19 70 34 82 36 98 9 81 -35 -22 -22 22 30 98 28 41 63 105 79 142 29 70 111 163 136 155 22 -7 19 30 -4 44 -10 6 -32 -8 -49 -32 -17 -25 -37 -38 -45 -31 -16 16 70 114 94 108 9 -2 30 14 47 36 31 40 31 39 26 -4 -4 -25 -13 -51 -20 -59 -29 -29 -12 -47 25 -27 24 12 35 33 28 51 -7 17 2 46 19 65 16 19 55 79 85 134 30 55 72 120 94 144 21 24 35 55 31 69 -6 16 -31 -8 -63 -58z"/> <path d="M5520 4442 c0 -16 6 -23 13 -16 7 7 30 3 52 -9 28 -15 46 -14 61 1 16 16 13 22 -12 22 -19 0 -34 7 -34 16 0 8 -18 15 -40 15 -22 0 -40 -13 -40 -29z"/> <path d="M2970 4405 c-11 -8 -42 -46 -68 -85 l-48 -70 55 50 c70 64 119 147 61 105z"/> <path d="M2155 4205 c-19 -36 -15 -154 4 -126 10 17 25 24 32 17 19 -19 -9 -56 -42 -56 -16 0 -29 -10 -29 -22 0 -15 16 -12 45 7 25 16 44 40 43 52 -1 13 -3 50 -5 83 -3 55 -30 81 -48 45z"/> <path d="M4033 4015 c-7 -25 -3 -48 8 -52 10 -3 19 -18 19 -32 0 -15 18 -31 40 -37 44 -11 50 7 21 61 -10 19 -23 51 -29 70 -15 49 -45 44 -59 -10z"/> <path d="M6432 4045 c-22 -22 -12 -48 13 -32 20 12 20 8 0 -16 -30 -38 -14 -57 49 -57 26 0 52 -13 58 -28 17 -45 59 -51 83 -12 19 30 17 34 -16 26 -24 -7 -43 2 -51 22 -7 17 -20 27 -30 21 -10 -6 -18 1 -18 15 0 31 -70 79 -88 61z"/> <path d="M6660 4040 c0 -11 -18 -20 -40 -20 -44 0 -49 -15 -20 -60 17 -26 19 -26 20 2 0 23 15 29 60 22 66 -9 75 4 31 47 -33 34 -51 37 -51 9z"/> <path d="M2102 3965 c-1 -14 -18 -25 -37 -25 -27 -1 -29 -4 -8 -18 15 -9 20 -20 10 -25 -10 -4 -12 -38 -7 -77 l11 -70 34 62 c24 46 28 78 16 120 -10 32 -18 47 -19 33z"/> <path d="M2444 3910 c-13 -27 -33 -50 -46 -50 -12 0 -17 -14 -10 -31 6 -17 3 -26 -7 -19 -21 12 -66 -58 -49 -76 32 -31 -35 -94 -78 -73 -41 20 -42 19 -7 -9 21 -16 31 -40 23 -53 -11 -17 -20 -16 -34 4 -16 22 -18 22 -11 -2 4 -17 -4 -52 -18 -80 -15 -29 -19 -57 -8 -68 19 -19 -70 -203 -98 -203 -10 0 -25 -8 -34 -18 -10 -11 -7 -12 8 -4 40 23 29 -23 -15 -64 -31 -29 -33 -37 -10 -37 16 0 41 25 54 55 13 30 32 50 42 45 9 -6 1 -28 -18 -49 -19 -21 -29 -43 -23 -49 6 -6 -9 -32 -32 -57 -180 -189 -222 -282 -103 -228 39 18 170 205 170 243 0 27 54 72 69 57 7 -7 4 13 -8 44 -12 32 -17 62 -12 68 6 6 11 -1 11 -16 0 -15 6 -21 13 -14 7 7 2 26 -11 41 -18 23 -17 36 8 60 17 17 36 60 44 97 7 36 29 96 49 132 21 36 37 82 37 103 0 21 9 44 21 52 23 14 124 231 113 242 -4 4 -18 -15 -30 -43z"/> <path d="M2615 3761 c-19 -28 -35 -61 -35 -75 0 -15 -10 -26 -21 -26 -12 0 -15 -11 -7 -25 11 -20 8 -20 -12 -1 -21 19 -21 31 -2 53 16 20 17 34 3 42 -33 21 -49 -46 -23 -102 19 -41 16 -59 -15 -104 -21 -29 -86 -134 -144 -233 -58 -99 -114 -186 -125 -193 -10 -7 -13 -23 -5 -35 7 -12 1 -22 -15 -22 -16 0 -40 -25 -52 -56 -13 -30 -83 -117 -156 -193 -120 -124 -127 -136 -74 -123 69 17 152 73 165 113 6 20 -6 16 -39 -11 -43 -36 -43 -34 5 20 29 33 66 88 83 121 33 64 94 127 94 96 0 -10 -23 -52 -52 -94 -28 -42 -47 -80 -42 -86 16 -16 85 96 133 219 26 63 49 112 53 108 9 -9 -74 -260 -90 -274 -7 -5 -34 -41 -61 -80 -27 -38 -59 -82 -70 -97 -27 -36 -137 -146 -179 -179 -59 -47 -40 -89 37 -80 55 6 65 2 48 -18 -16 -19 -14 -26 8 -26 17 0 44 29 62 65 18 36 32 57 33 47 0 -10 18 3 40 28 40 46 43 58 45 170 0 33 13 72 28 86 22 21 27 20 27 -4 0 -16 -9 -35 -19 -41 -23 -15 -5 -71 22 -71 11 0 17 16 15 35 -3 19 10 70 28 112 19 43 35 97 36 120 1 29 8 21 21 -25 11 -37 12 -73 3 -80 -9 -7 -19 -30 -23 -52 -3 -22 -23 -79 -44 -126 -59 -135 -12 -80 61 70 77 161 97 223 113 356 6 55 20 115 29 134 32 60 19 59 -47 -3 -70 -66 -86 -72 -105 -41 -7 11 2 20 19 20 17 0 30 7 29 15 -9 52 3 75 23 45 17 -25 26 -21 61 25 23 31 52 49 65 42 13 -7 16 -6 8 3 -8 9 12 63 45 120 33 58 59 126 58 152 -1 37 -13 22 -52 -58 -27 -59 -54 -103 -59 -98 -5 5 19 70 53 144 69 151 79 261 15 171z"/> <path d="M5553 3770 c14 -36 74 -39 103 -5 16 19 4 26 -47 30 -53 4 -65 -2 -56 -25z"/> <path d="M6007 3686 c18 -35 25 -69 15 -75 -10 -6 -23 0 -29 14 -6 15 -10 10 -11 -11 -1 -20 -11 -31 -22 -24 -11 7 -20 2 -20 -11 0 -13 14 -18 30 -12 17 7 30 3 30 -8 0 -10 18 -19 40 -19 22 0 40 10 40 22 0 13 -15 17 -35 10 -30 -10 -31 -9 -5 13 30 25 43 155 15 155 -8 0 -15 -10 -15 -22 0 -15 -12 -13 -33 5 -31 25 -31 23 0 -37z"/> <path d="M6180 3721 c0 -11 -25 -33 -55 -50 -30 -16 -43 -30 -29 -30 15 -1 21 -10 14 -21 -7 -11 1 -20 18 -20 16 0 35 9 42 20 18 29 33 120 20 120 -5 0 -10 -9 -10 -19z"/> <path d="M1941 3644 c-1 -15 -11 -20 -24 -12 -16 10 -20 -2 -13 -39 6 -29 4 -53 -5 -53 -8 0 -20 -12 -25 -28 -7 -18 0 -25 23 -19 46 13 87 104 63 145 -13 21 -19 23 -19 6z"/> <path d="M2316 3445 c-99 -238 -114 -296 -56 -215 111 158 202 390 152 390 -13 0 -56 -79 -96 -175z"/> <path d="M5629 3502 c-10 -10 -41 -22 -69 -25 -28 -4 -50 -20 -50 -37 0 -28 11 -29 95 -5 28 8 35 -3 35 -48 -1 -56 -30 -125 -46 -106 -4 5 -23 32 -43 59 l-35 50 14 -60 c8 -33 18 -81 21 -108 3 -26 16 -57 29 -70 13 -12 21 -13 18 -2 -15 66 84 171 147 154 27 -7 16 46 -20 97 -19 27 -34 62 -35 77 0 35 -35 49 -61 24z"/> <path d="M6000 3500 c0 -11 13 -20 28 -20 16 0 33 -11 38 -25 5 -14 14 -20 22 -13 7 7 7 27 0 45 -13 35 -88 46 -88 13z"/> <path d="M3882 3481 c-31 -19 -66 -221 -38 -221 9 0 16 9 16 20 0 12 23 31 50 44 51 23 70 101 30 126 -12 7 -15 21 -9 31 14 24 -12 24 -49 0z"/> <path d="M4953 3430 c-29 -21 -28 -28 8 -66 21 -23 39 -52 39 -63 0 -12 10 -21 21 -21 12 0 15 -10 7 -23 -9 -15 -5 -18 10 -8 13 8 21 33 18 56 -3 23 5 45 19 50 16 5 21 -3 13 -23 -7 -18 -3 -32 8 -32 30 0 42 75 17 107 -31 39 -120 52 -160 23z"/> <path d="M2540 3178 c-27 -23 -38 -35 -23 -27 21 11 24 3 13 -33 -19 -61 14 -28 46 47 28 65 28 65 -36 13z"/> <path d="M3525 2705 c-25 -38 -28 -54 -10 -60 14 -5 25 -26 25 -47 0 -54 15 -48 91 34 76 83 72 121 -12 124 -43 1 -69 -13 -94 -51z"/> <path d="M7400 2731 c27 -34 26 -36 -13 -23 -32 10 -45 3 -53 -29 -10 -37 -21 -41 -75 -29 -82 18 -66 -9 51 -90 111 -76 129 -77 45 -1 l-65 58 55 21 c53 20 115 12 115 -16 0 -7 27 -29 60 -49 77 -45 76 -27 -3 64 -71 81 -173 163 -117 94z"/> <path d="M3828 2606 c0 -40 -11 -77 -24 -81 -13 -5 -18 -18 -11 -29 7 -12 -9 -39 -35 -60 -26 -22 -36 -33 -21 -25 22 11 23 6 4 -29 -12 -23 -32 -42 -43 -42 -11 0 -15 9 -8 20 7 11 0 15 -14 9 -19 -7 -26 9 -24 57 5 95 -39 151 -87 110 -19 -17 -46 -27 -60 -22 -29 11 -32 -12 -6 -53 16 -26 21 -25 32 5 32 83 83 28 93 -100 3 -46 11 -59 28 -45 15 13 31 9 48 -11 20 -25 19 -30 -8 -30 -17 0 -32 -16 -32 -36 0 -20 -10 -46 -21 -57 -16 -16 -7 -25 30 -32 29 -5 49 -6 44 -1 -5 5 12 31 37 58 70 76 145 50 143 -49 -1 -49 16 -99 53 -153 30 -43 54 -66 54 -50 -1 28 -29 217 -46 310 -9 47 9 125 63 265 42 110 27 140 -29 55 -45 -69 -82 -63 -117 20 -37 88 -43 88 -43 -4z"/> <path d="M1834 2607 c-25 -25 -15 -67 17 -67 18 0 45 14 62 30 16 17 21 30 10 30 -11 0 -32 5 -47 11 -16 5 -34 4 -42 -4z"/> <path d="M3284 2587 c-92 -46 -79 -97 26 -97 75 0 80 4 80 58 0 72 -22 80 -106 39z"/> <path d="M6971 2482 c-6 -10 16 -27 48 -39 80 -28 237 -145 252 -188 13 -39 -5 -115 -27 -112 -36 5 -64 -5 -64 -23 0 -11 29 -20 65 -20 82 -1 155 -20 155 -41 0 -34 -73 -37 -179 -9 -60 16 -113 24 -118 19 -22 -21 68 -89 117 -89 64 0 81 -14 66 -52 -8 -22 -17 -23 -37 -7 -41 34 -62 9 -65 -73 -3 -83 46 -141 135 -160 28 -6 63 -15 77 -19 14 -5 21 0 15 10 -6 9 0 22 14 28 15 6 10 11 -11 11 -26 2 -36 16 -33 47 7 88 -1 137 -21 125 -11 -7 -20 -2 -20 10 0 12 11 19 25 16 91 -19 156 94 95 165 -27 30 -34 53 -21 66 29 29 -95 179 -136 163 -17 -7 -25 -6 -17 2 17 18 -43 88 -76 88 -13 0 -66 23 -118 50 -107 57 -106 56 -121 32z"/> <path d="M1700 2397 c-43 -36 -51 -37 -56 -9 -4 17 -16 32 -27 32 -11 0 -14 -18 -7 -40 10 -31 4 -40 -29 -40 -22 0 -41 9 -41 20 0 11 -22 18 -50 15 -69 -5 -36 -30 62 -46 73 -12 90 -6 150 48 77 70 75 84 -2 20z"/> <path d="M1770 2388 c-22 -26 -74 -71 -115 -98 -86 -58 -94 -84 -30 -96 27 -5 14 -10 -32 -11 -67 -3 -74 1 -53 27 21 25 17 30 -23 30 -35 1 -40 5 -19 19 21 13 6 24 -57 41 -73 19 -91 18 -118 -8 -28 -29 -28 -32 -1 -32 17 0 43 -23 58 -50 15 -28 41 -48 58 -45 22 3 31 -9 30 -40 -2 -25 5 -45 15 -45 9 0 17 -10 17 -21 0 -12 -10 -15 -22 -8 -14 9 -14 -2 2 -32 21 -38 20 -43 -6 -33 -34 13 -61 -99 -29 -119 11 -7 14 -39 7 -72 -7 -34 -2 -73 11 -88 17 -21 15 -36 -10 -64 -37 -40 -25 -63 30 -63 20 0 37 -9 37 -20 0 -11 -13 -20 -29 -20 -18 0 -25 -12 -18 -30 6 -17 0 -45 -15 -62 -40 -48 -39 -86 4 -166 34 -63 35 -75 9 -94 -17 -12 -25 -28 -17 -35 7 -7 1 -13 -13 -13 -16 0 -22 -15 -15 -40 7 -26 0 -40 -19 -40 -16 0 -27 -11 -25 -25 6 -35 -23 -97 -40 -86 -8 4 -15 -11 -17 -34 -2 -23 -13 -47 -25 -55 -12 -7 -23 -40 -26 -72 -2 -32 -15 -67 -28 -78 -14 -11 -27 -54 -29 -95 -3 -41 -13 -75 -24 -75 -10 0 -6 -15 10 -34 18 -23 19 -29 2 -19 -14 9 -26 8 -27 -1 0 -9 -6 -34 -11 -56 -5 -22 -11 -71 -13 -110 -2 -38 -11 -81 -19 -94 -9 -13 -7 -29 4 -35 10 -7 25 -52 32 -101 l14 -90 85 0 c120 0 140 32 90 146 -39 86 -39 96 -9 178 18 47 48 149 68 226 49 194 104 328 178 435 35 51 63 100 63 110 0 10 36 66 80 125 44 59 80 117 80 129 -1 14 -5 14 -15 0 -8 -11 -42 -16 -75 -9 l-60 11 55 37 c30 20 55 45 55 55 0 18 -100 -38 -122 -68 -6 -9 -25 -11 -41 -5 -17 7 -42 -2 -56 -19 -14 -17 -34 -26 -43 -20 -10 6 -18 0 -18 -13 0 -14 -6 -19 -13 -12 -14 14 85 122 115 127 10 1 31 3 46 5 87 7 120 71 81 159 -35 79 -40 83 -103 71 -78 -15 -82 -4 -21 52 41 39 45 39 58 6 12 -31 14 -29 16 9 1 40 6 42 40 21 22 -14 45 -19 52 -12 20 20 -57 96 -97 96 -20 0 -31 9 -24 20 17 28 -2 25 -73 -12 -41 -21 -55 -38 -41 -52 13 -13 35 -11 67 5 42 23 44 22 21 -6 -41 -50 -99 -56 -111 -11 -12 47 206 276 263 276 30 0 49 15 105 81 5 7 -7 28 -26 47 -34 34 -50 104 -19 85 31 -19 77 25 47 44 -22 14 -21 19 3 29 16 6 39 1 52 -12 16 -16 29 -15 47 5 20 22 18 25 -12 14 -28 -10 -35 -6 -26 18 25 64 -126 79 -177 17z"/> <path d="M3131 2415 c6 -17 27 -36 45 -42 19 -7 68 -24 109 -40 82 -31 91 -26 45 20 -17 17 -26 37 -21 45 5 9 -2 16 -15 17 -13 1 -58 8 -99 16 -63 12 -74 9 -64 -16z"/> <path d="M6729 2408 c-78 -26 -125 -60 -59 -42 22 6 85 17 140 24 120 15 131 22 51 34 -33 5 -93 -2 -132 -16z"/> <path d="M2161 2341 c-28 -21 -56 -34 -64 -29 -21 13 -77 -14 -77 -37 0 -12 12 -10 29 4 16 14 38 19 49 12 10 -6 45 11 76 38 66 59 57 67 -13 12z"/> <path d="M7577 2164 c-15 -68 -5 -124 20 -114 18 7 24 0 16 -20 -7 -18 0 -30 18 -30 16 0 29 -16 29 -35 1 -29 4 -30 19 -6 11 17 12 35 3 40 -9 6 -22 44 -30 84 -11 63 -66 122 -75 81z"/> <path d="M2067 2125 c-8 -30 -27 -45 -57 -45 -25 0 -56 -14 -70 -30 -35 -42 -12 -59 26 -21 42 41 109 43 75 2 -13 -16 -22 -45 -19 -65 6 -42 -60 -263 -92 -306 -44 -60 -74 -137 -62 -156 7 -11 1 -25 -13 -31 -16 -6 -12 -10 9 -11 18 -1 36 -18 40 -37 5 -21 21 4 42 63 19 55 30 103 24 108 -5 6 5 21 24 34 21 16 34 58 37 122 2 54 10 113 18 132 8 19 9 44 2 55 -8 12 -6 21 3 21 10 0 19 24 22 53 2 29 14 65 27 81 18 21 18 33 -1 52 -18 18 -26 13 -35 -21z"/> <path d="M3440 2091 c0 -96 118 -112 207 -29 38 36 27 50 -32 40 -8 -1 -15 7 -15 19 0 13 -12 14 -36 1 -22 -12 -47 -12 -65 -1 -46 29 -59 22 -59 -30z"/> <path d="M7012 1965 c-40 -41 -72 -88 -72 -105 1 -22 5 -24 16 -5 9 13 34 21 57 16 34 -6 40 1 33 46 -7 51 -6 50 27 -11 18 -35 47 -69 63 -75 23 -9 22 -1 -5 41 -19 29 -31 74 -26 101 15 76 -16 74 -93 -8z"/> <path d="M1773 1947 c-24 -25 -14 -47 22 -47 21 0 26 -6 14 -15 -42 -29 -45 -78 -7 -102 47 -29 57 -9 53 102 -2 49 -10 68 -23 55 -26 -26 -58 -26 -42 0 14 23 3 27 -17 7z"/> <path d="M5644 1867 c-28 -93 -22 -102 21 -30 18 30 26 66 17 79 -10 16 -23 -2 -38 -49z"/> <path d="M6402 1908 c-109 -29 -253 -104 -234 -122 5 -6 71 15 146 45 150 60 397 76 427 28 9 -15 34 -19 68 -11 67 17 50 45 -45 71 -101 28 -232 24 -362 -11z"/> <path d="M6300 1767 c-33 -11 -106 -41 -174 -73 -61 -27 -37 -57 26 -33 28 11 59 15 68 9 10 -6 23 -1 31 12 14 22 803 10 826 -13 6 -5 -9 -35 -32 -67 -65 -88 -109 -206 -86 -229 14 -14 12 -31 -7 -52 -41 -48 -63 -155 -25 -124 16 14 25 43 19 69 l-11 44 34 -45 c41 -56 84 -58 101 -4 7 22 30 56 51 76 21 19 41 67 44 105 5 72 97 94 122 28 12 -30 -40 -110 -71 -110 -30 0 -75 -63 -75 -107 -1 -25 -11 -33 -32 -25 -17 6 -26 4 -20 -6 21 -34 -46 -70 -79 -42 -18 15 -30 17 -30 4 0 -11 -6 -37 -13 -56 -11 -27 -6 -32 20 -22 18 7 33 4 33 -7 0 -10 -14 -19 -32 -19 -22 0 -28 -11 -19 -35 11 -28 8 -30 -11 -11 -25 25 -77 -18 -77 -64 0 -11 13 -3 30 19 27 36 29 36 29 2 0 -20 -21 -56 -46 -79 -52 -49 -83 -112 -53 -112 29 0 23 -106 -11 -188 -17 -39 -27 -72 -23 -72 27 0 493 644 493 680 0 12 23 55 50 96 72 106 64 145 -57 270 -159 164 -200 176 -613 184 -192 4 -363 2 -380 -3z"/> <path d="M6780 1594 l-50 -20 60 -13 c79 -17 140 -3 112 25 -30 30 -64 32 -122 8z"/> <path d="M6785 1495 c-58 -61 -32 -105 31 -54 33 27 42 47 29 69 -15 27 -23 25 -60 -15z"/> <path d="M6763 1361 c-103 -99 -120 -128 -84 -150 11 -7 14 -26 7 -43 -9 -25 -15 -26 -28 -5 -12 20 -19 17 -30 -11 -153 -398 -572 -862 -830 -921 -129 -29 -127 -63 2 -54 127 9 135 -33 20 -109 -106 -71 -112 -68 150 -68 179 0 230 6 230 27 0 34 69 97 87 80 7 -8 13 0 13 18 0 21 13 28 37 22 26 -7 41 3 49 33 6 24 19 39 29 33 9 -5 18 9 19 33 1 24 -2 33 -8 19 -5 -14 -17 -25 -27 -25 -10 0 -13 14 -6 30 6 17 29 30 50 30 25 0 34 -9 25 -23 -9 -14 -5 -18 9 -9 13 8 33 54 45 103 14 55 34 89 52 89 22 0 26 15 16 62 -9 39 -3 90 16 135 16 40 39 109 51 153 45 169 67 230 85 241 28 18 178 332 178 374 0 59 -49 39 -157 -64z m-525 -996 c-82 -138 -180 -258 -239 -293 -111 -65 -58 34 121 225 147 157 184 178 118 68z"/> <path d="M7491 1442 c22 -41 37 -192 38 -364 1 -118 7 -151 27 -143 15 6 22 22 16 36 -5 15 1 30 14 35 18 7 18 19 -2 52 -29 50 39 175 81 149 13 -8 15 -4 7 10 -8 13 -22 19 -31 13 -9 -5 -22 3 -28 19 -6 17 -1 36 10 43 15 9 11 20 -11 32 -18 10 -28 26 -23 35 6 9 -3 28 -19 41 -17 14 -30 18 -30 9 0 -9 -14 1 -31 22 -18 22 -25 26 -18 11z"/> <path d="M5446 1320 c-63 -132 -76 -187 -43 -176 41 13 101 148 93 210 -7 54 -9 52 -50 -34z"/> <path d="M7431 1348 c-21 -32 -49 -65 -64 -74 -31 -18 -37 -74 -7 -74 28 0 126 153 116 182 -4 13 -25 -3 -45 -34z"/> <path d="M6132 1237 c-21 -12 -86 -24 -146 -26 -118 -5 -131 -13 -161 -101 -12 -33 -28 -78 -37 -100 -9 -25 6 -15 40 25 47 55 69 65 141 65 156 0 206 18 218 80 6 31 27 61 47 66 25 7 21 10 -14 11 -27 1 -67 -8 -88 -20z"/> <path d="M6340 1232 c0 -16 -26 -35 -58 -42 -67 -14 -94 -62 -59 -103 18 -22 14 -38 -18 -73 -22 -24 -38 -59 -34 -78 6 -41 -41 -85 -71 -66 -21 13 -240 -200 -240 -234 0 -9 -17 -16 -37 -16 -49 0 -116 -72 -79 -85 14 -5 42 -1 61 8 21 11 35 11 35 0 0 -121 377 206 437 378 21 60 62 153 91 207 63 118 64 132 12 132 -22 0 -40 -13 -40 -28z"/> <path d="M7444 1185 c-97 -137 -138 -253 -147 -415 -3 -44 -22 -105 -42 -135 -48 -71 -11 -72 44 -2 28 36 35 58 20 67 -14 9 -3 35 30 75 28 34 74 110 100 168 91 198 87 372 -5 242z"/> <path d="M5660 1103 c0 -12 -13 -17 -28 -11 -15 6 -34 1 -41 -11 -11 -17 53 -32 74 -18 3 2 26 -8 52 -22 38 -20 46 -20 39 0 -12 36 -96 90 -96 62z"/> <path d="M4225 995 c-57 -22 -99 -49 -93 -59 7 -10 27 -13 45 -6 18 8 49 17 68 21 37 7 106 66 92 78 -4 3 -54 -12 -112 -34z"/> <path d="M7205 961 c-14 -22 -25 -72 -25 -111 0 -57 -8 -70 -40 -70 -50 0 -207 -150 -193 -184 6 -16 10 -13 11 9 1 19 11 35 22 35 23 0 27 -73 5 -83 -67 -30 -277 -348 -213 -324 16 7 26 16 21 20 -10 10 43 76 162 200 47 49 85 96 85 105 0 9 23 26 51 39 45 20 49 31 38 93 -13 70 15 100 38 40 7 -16 25 -30 42 -30 38 0 78 73 57 105 -8 14 -20 64 -25 111 -10 78 -13 82 -36 45z"/> <path d="M3940 849 c-49 -27 -75 -49 -57 -49 43 0 171 54 187 80 21 34 -36 21 -130 -31z"/> <path d="M7527 871 c7 -19 13 -43 13 -53 0 -10 10 -18 21 -18 31 0 14 85 -19 96 -20 7 -24 -1 -15 -25z"/> <path d="M4369 813 c-39 -37 -138 -107 -220 -155 -167 -98 -203 -158 -179 -297 11 -66 7 -81 -28 -100 -23 -12 -42 -38 -42 -57 1 -27 4 -28 18 -7 12 19 21 21 31 5 7 -12 8 -31 1 -42 -24 -40 13 -160 50 -160 31 0 35 19 33 155 -5 255 154 442 380 447 75 1 76 2 22 21 -92 34 -69 74 36 62 l91 -10 -43 72 c-24 41 -38 87 -32 103 21 53 -44 33 -118 -37z"/> <path d="M5688 788 c-92 -119 -228 -318 -228 -334 0 -20 104 47 133 86 13 16 19 36 14 45 -5 8 0 15 12 15 12 0 31 24 42 53 11 29 38 78 61 110 64 90 33 112 -34 25z"/> <path d="M6773 753 c-7 -27 -25 -62 -39 -77 -24 -25 -79 -178 -67 -190 17 -17 148 269 134 292 -11 18 -19 11 -28 -25z"/> <path d="M3591 721 c-33 -37 -35 -46 -10 -61 38 -24 64 4 56 60 l-7 45 -39 -44z"/> <path d="M2940 672 c0 -16 -28 -35 -61 -42 -34 -8 -57 -18 -52 -24 13 -12 215 52 242 76 11 11 -11 18 -55 18 -51 0 -74 -9 -74 -28z"/> <path d="M7236 539 c-79 -42 -150 -124 -116 -136 11 -3 20 -19 20 -35 0 -18 22 -28 61 -28 36 0 56 8 49 20 -7 11 -24 20 -39 20 -29 0 -50 55 -36 95 5 14 17 20 27 14 10 -6 18 -2 18 10 0 11 12 21 28 21 15 0 38 14 52 30 31 38 27 37 -64 -11z"/> <path d="M3515 490 c-111 -71 -118 -89 -32 -84 38 3 69 -8 80 -26 41 -72 133 -290 126 -298 -20 -19 -188 64 -199 99 -7 22 -26 39 -41 39 -16 0 -29 10 -29 23 0 45 -108 119 -160 110 -51 -9 -782 -268 -890 -315 l-60 -26 67 -7 c36 -4 94 2 128 14 76 26 184 27 275 2 60 -17 65 -16 35 7 -61 46 -38 58 96 47 110 -9 134 -5 144 22 20 54 112 143 147 143 42 0 196 -139 157 -141 -18 -1 -14 -8 11 -19 39 -17 39 -18 -5 -31 -25 -8 -45 -22 -45 -31 0 -27 116 -21 125 6 6 19 25 19 89 0 130 -39 294 -33 275 11 -8 19 -24 62 -37 96 -12 33 -42 86 -67 118 -59 74 -78 150 -45 171 15 10 20 31 12 52 -12 30 -17 32 -31 9 -13 -21 -19 -16 -24 21 l-7 48 -95 -60z"/> <path d="M2926 514 c-33 -18 -39 -32 -25 -54 16 -25 22 -26 37 -2 10 16 32 22 51 15 41 -15 117 21 100 48 -16 26 -110 22 -163 -7z"/> <path d="M3176 516 c13 -13 24 -41 24 -62 0 -35 84 -37 118 -2 13 12 -65 66 -81 56 -8 -5 -20 0 -27 12 -7 11 -23 20 -35 20 -17 0 -16 -7 1 -24z"/> <path d="M4545 465 c-63 -34 -225 -212 -225 -247 0 -37 40 -15 153 82 101 86 129 100 203 100 96 0 97 30 1 51 -46 10 -55 18 -35 31 55 34 -29 20 -97 -17z"/> <path d="M4250 446 c-22 -6 -49 -18 -59 -28 -32 -31 58 -20 100 11 40 30 30 34 -41 17z"/> <path d="M4580 303 c-36 -30 -41 -42 -19 -42 17 -1 41 9 53 21 12 12 38 18 59 14 28 -6 15 -20 -54 -61 -110 -66 -211 -235 -139 -235 22 0 40 7 40 16 0 53 215 244 275 244 58 0 102 29 79 53 -37 37 -247 29 -294 -10z"/> <path d="M5202 253 c-84 -122 -73 -151 24 -63 82 76 123 87 141 40 6 -16 25 -24 40 -18 18 7 33 -4 39 -26 8 -33 10 -33 12 -1 1 19 12 35 23 35 12 0 16 9 9 20 -7 11 -39 20 -71 20 -33 0 -59 9 -59 20 0 11 -17 20 -38 20 -21 0 -42 11 -47 24 -4 13 -37 -19 -73 -71z"/> <path d="M8185 308 c-34 -36 -31 -68 5 -68 17 0 30 13 30 28 0 16 11 32 24 37 16 5 15 11 -5 19 -16 6 -40 -1 -54 -16z"/> <path d="M5022 191 c-54 -166 -53 -191 4 -191 44 0 47 8 51 160 6 194 -1 198 -55 31z"/> <path d="M6807 232 c-74 -38 -250 -232 -210 -232 48 0 137 46 160 82 21 35 21 39 -1 27 -14 -9 -9 3 12 27 20 24 44 39 53 33 9 -5 20 2 26 16 8 20 10 20 11 0 4 -50 38 -24 46 35 10 69 13 68 -97 12z"/> <path d="M4368 167 c-85 -43 -160 -167 -100 -167 30 0 172 148 172 180 0 24 5 25 -72 -13z"/> <path d="M4780 70 c-26 -27 -42 -54 -37 -60 5 -5 36 17 67 50 32 33 48 60 37 60 -11 0 -41 -22 -67 -50z"/> <path d="M5325 40 c-26 -41 -13 -49 43 -28 38 15 43 68 7 68 -14 0 -37 -18 -50 -40z"/> </g> </svg> 